<svg version="1.1" xmlns="http://www.w3.org/2000/svg" xmlns:xlink="http://www.w3.org/1999/xlink" width="1109" height="510" viewBox="0 0 1109 510"><defs/><g transform="matrix(1,0,0,1,0,0)"><g><g><g><path fill="none" stroke="#d3d3d3" paint-order="fill stroke markers" d=" M 0 0 L 1200 0" stroke-miterlimit="10" stroke-opacity="0.8" stroke-dasharray="5"/></g><g><path fill="none" stroke="#d3d3d3" paint-order="fill stroke markers" d=" M 0 0 L 0 800" stroke-miterlimit="10" stroke-opacity="0.8" stroke-dasharray="5"/></g></g><g id="_A422224C-94B7-4E44-99AB-5A010069476B" bpmn2nodeid="_A422224C-94B7-4E44-99AB-5A010069476B" transform="matrix(1,0,0,1,1003,381)"><g><path fill="none" stroke="none"/></g><g transform="matrix(0.125,0,0,0.125,0,0)"><g transform="matrix(1,0,0,1,0,0)"><path fill="#fce7e7" stroke="none" id="_A422224C-94B7-4E44-99AB-5A010069476B?shapeType=BACKGROUND" paint-order="stroke fill markers" d=" M 0 0 M 444 224 C 444 263.9 434.2 300.8 414.4 334.5 C 394.7 368.2 368 394.9 334.4 414.5 C 300.79999999999995 434.1 263.9 444 224 444 C 184.10000000000002 444 147.2 434.2 113.5 414.4 C 79.8 394.7 53.1 368 33.5 334.4 C 13.899999999999999 300.79999999999995 4 263.9 4 224 C 4 184.10000000000002 13.8 147.2 33.6 113.5 C 53.400000000000006 79.80000000000001 80.1 53.1 113.6 33.5 C 147.1 13.899999999999999 184.1 4 224 4 C 263.9 4 300.8 13.8 334.5 33.6 C 368.2 53.400000000000006 394.9 80.1 414.5 113.6 C 434.1 147.1 444 184.1 444 224 Z"/></g><g><g transform="matrix(1,0,0,1,0,0)"><g transform="matrix(1,0,0,1,0,0)"><path fill="#a30000" stroke="none" id="_A422224C-94B7-4E44-99AB-5A010069476B?shapeType=BORDER&amp;renderType=FILL" paint-order="stroke fill markers" d=" M 0 0 M 224 0 C 100.3 0 0 100.3 0 224 C 0 347.7 100.3 448 224 448 C 347.7 448 448 347.7 448 224 C 448 100.30000000000001 347.7 0 224 0 Z M 0 0 M 224 400 C 126.8 400 48 321.2 48 224 C 48 126.80000000000001 126.8 48 224 48 C 321.2 48 400 126.8 400 224 C 400 321.2 321.2 400 224 400 Z"/></g></g></g></g><g transform="matrix(1,0,0,1,28,61)"/></g><g id="_9E5DC0DA-E785-4C1C-9B51-4617AF3B5A79" bpmn2nodeid="_9E5DC0DA-E785-4C1C-9B51-4617AF3B5A79" transform="matrix(1,0,0,1,769,358)"><g><path fill="none" stroke="none"/></g><g transform="matrix(1,0,0,1,0,0)"><path fill="#ffffff" stroke="none" id="_9E5DC0DA-E785-4C1C-9B51-4617AF3B5A79?shapeType=BACKGROUND" paint-order="stroke fill markers" d=" M 2 0 L 152 0 L 152 0 A 2 2 0 0 1 154 2 L 154 100 L 154 100 A 2 2 0 0 1 152 102 L 2 102 L 2 102 A 2 2 0 0 1 0 100 L 0 2 L 0 2.0000000000000004 A 2 2 0 0 1 1.9999999999999996 0 Z"/></g><g transform="matrix(1,0,0,1,0,0)"><path fill="none" stroke="#000000" id="_9E5DC0DA-E785-4C1C-9B51-4617AF3B5A79?shapeType=BORDER&amp;renderType=STROKE" paint-order="fill stroke markers" d=" M 2 0 L 152 0 L 152 0 A 2 2 0 0 1 154 2 L 154 100 L 154 100 A 2 2 0 0 1 152 102 L 2 102 L 2 102 A 2 2 0 0 1 0 100 L 0 2 L 0 2.0000000000000004 A 2 2 0 0 1 1.9999999999999996 0 Z" stroke-miterlimit="10" stroke-width="1.5" stroke-dasharray=""/></g><g><g transform="matrix(0.06,0,0,0.06,9.4,9.4)"><g transform="matrix(1,0,0,1,0,0)"><path fill="#393f44" stroke="none" id="_9E5DC0DA-E785-4C1C-9B51-4617AF3B5A79undefined" paint-order="stroke fill markers" d=" M 0 0 M 197.3 130.2 C 194.4 127.29999999999998 189.60000000000002 127.29999999999998 186.70000000000002 130.2 L 130.20000000000002 186.7 C 127.30000000000001 189.6 127.30000000000001 194.39999999999998 130.20000000000002 197.29999999999998 L 186.70000000000002 253.79999999999998 C 188.10000000000002 255.29999999999998 190.10000000000002 255.99999999999997 192.00000000000003 255.99999999999997 C 193.90000000000003 255.99999999999997 195.90000000000003 255.29999999999998 197.30000000000004 253.69999999999996 C 200.20000000000005 250.79999999999995 200.20000000000005 245.99999999999997 197.30000000000004 243.09999999999997 L 146.2 192 L 197.29999999999998 140.8 C 200.2 137.9 200.2 133.1 197.3 130.2 Z"/></g><g transform="matrix(1,0,0,1,0,0)"><path fill="#393f44" stroke="none" id="_9E5DC0DA-E785-4C1C-9B51-4617AF3B5A79undefined" paint-order="stroke fill markers" d=" M 0 0 M 261.3 130.2 C 258.40000000000003 127.29999999999998 253.60000000000002 127.29999999999998 250.70000000000002 130.2 C 247.8 133.1 247.8 137.89999999999998 250.70000000000002 140.79999999999998 L 301.8 191.89999999999998 L 250.7 243 C 247.79999999999998 245.9 247.79999999999998 250.7 250.7 253.6 C 252.1 255.29999999999998 254.1 256 256 256 C 257.9 256 259.9 255.3 261.3 253.8 L 317.8 197.3 C 320.7 194.4 320.7 189.60000000000002 317.8 186.70000000000002 L 261.3 130.2 Z"/></g><g transform="matrix(1,0,0,1,0,0)"><path fill="#393f44" stroke="none" id="_9E5DC0DA-E785-4C1C-9B51-4617AF3B5A79undefined" paint-order="stroke fill markers" d=" M 0 0 M 400 32 C 400 32 152.8 32 128 32 C 62 32 64 96 64 96 L 64 288 L 1 288 C 1 288 -4 416 78 416 L 320 416 C 368 416 384 368 384 336 C 384 314.2 384 224.4 384 160 L 448 160 L 448 96 C 448 96 449 32 400 32 Z M 0 0 M 78 383.9 C 68.5 383.9 61.6 381.09999999999997 55.5 374.9 C 43.4 362.4 37.5 339.59999999999997 34.9 320 L 256.9 320 C 257.09999999999997 322.7 257.29999999999995 325.4 257.59999999999997 328.2 C 259.99999999999994 351.59999999999997 264.7 370.09999999999997 271.9 383.9 L 78 383.9 L 78 383.9 Z M 0 0 M 352 336 C 352 345.9 349.6 360.3 342.9 371 C 337.2 380.1 330.4 384 320 384 C 285 384 288 288 288 288 L 96 288 L 96 96 L 96 95.9 L 96 95.10000000000001 C 96 90.60000000000001 97.6 78.30000000000001 104.7 71.20000000000002 C 106.5 69.40000000000002 111.9 64.00000000000001 128 64.00000000000001 L 356.5 64.00000000000001 C 354.4 72.80000000000001 352.8 81.80000000000001 352.2 89.9 C 352.2 90.5 352.09999999999997 91.10000000000001 352.09999999999997 91.7 C 352.09999999999997 92 352.09999999999997 92.3 352.09999999999997 92.60000000000001 C 352 94.8 352 96 352 96 L 352 160 L 352 336 Z"/></g></g></g><g transform="matrix(1,0,0,1,35,43.5)"><text fill="#000000" stroke="none" font-family="Open Sans" font-size="12pt" font-style="normal" font-weight="normal" text-decoration="normal" x="50.275001525878906" y="12" text-anchor="middle" dominant-baseline="alphabetic">Hello World 3</text></g></g><g id="_C995F715-4B03-4923-A36C-20580FBCD9C9" bpmn2nodeid="_C995F715-4B03-4923-A36C-20580FBCD9C9" transform="matrix(1,0,0,1,1003,147)"><g><path fill="none" stroke="none"/></g><g transform="matrix(0.125,0,0,0.125,0,0)"><g transform="matrix(1,0,0,1,0,0)"><path fill="#fce7e7" stroke="none" id="_C995F715-4B03-4923-A36C-20580FBCD9C9?shapeType=BACKGROUND" paint-order="stroke fill markers" d=" M 0 0 M 444 224 C 444 263.9 434.2 300.8 414.4 334.5 C 394.7 368.2 368 394.9 334.4 414.5 C 300.79999999999995 434.1 263.9 444 224 444 C 184.10000000000002 444 147.2 434.2 113.5 414.4 C 79.8 394.7 53.1 368 33.5 334.4 C 13.899999999999999 300.79999999999995 4 263.9 4 224 C 4 184.10000000000002 13.8 147.2 33.6 113.5 C 53.400000000000006 79.80000000000001 80.1 53.1 113.6 33.5 C 147.1 13.899999999999999 184.1 4 224 4 C 263.9 4 300.8 13.8 334.5 33.6 C 368.2 53.400000000000006 394.9 80.1 414.5 113.6 C 434.1 147.1 444 184.1 444 224 Z"/></g><g><g transform="matrix(1,0,0,1,0,0)"><g transform="matrix(1,0,0,1,0,0)"><path fill="#a30000" stroke="none" id="_C995F715-4B03-4923-A36C-20580FBCD9C9?shapeType=BORDER&amp;renderType=FILL" paint-order="stroke fill markers" d=" M 0 0 M 224 0 C 100.3 0 0 100.3 0 224 C 0 347.7 100.3 448 224 448 C 347.7 448 448 347.7 448 224 C 448 100.30000000000001 347.7 0 224 0 Z M 0 0 M 224 400 C 126.8 400 48 321.2 48 224 C 48 126.80000000000001 126.8 48 224 48 C 321.2 48 400 126.8 400 224 C 400 321.2 321.2 400 224 400 Z"/></g></g></g></g><g transform="matrix(1,0,0,1,28,61)"/></g><g id="_BD271F1C-575E-4066-B2E2-E5C4D4E4D767" bpmn2nodeid="_BD271F1C-575E-4066-B2E2-E5C4D4E4D767" transform="matrix(1,0,0,1,769,124)"><g><path fill="none" stroke="none"/></g><g transform="matrix(1,0,0,1,0,0)"><path fill="#ffffff" stroke="none" id="_BD271F1C-575E-4066-B2E2-E5C4D4E4D767?shapeType=BACKGROUND" paint-order="stroke fill markers" d=" M 2 0 L 152 0 L 152 0 A 2 2 0 0 1 154 2 L 154 100 L 154 100 A 2 2 0 0 1 152 102 L 2 102 L 2 102 A 2 2 0 0 1 0 100 L 0 2 L 0 2.0000000000000004 A 2 2 0 0 1 1.9999999999999996 0 Z"/></g><g transform="matrix(1,0,0,1,0,0)"><path fill="none" stroke="#000000" id="_BD271F1C-575E-4066-B2E2-E5C4D4E4D767?shapeType=BORDER&amp;renderType=STROKE" paint-order="fill stroke markers" d=" M 2 0 L 152 0 L 152 0 A 2 2 0 0 1 154 2 L 154 100 L 154 100 A 2 2 0 0 1 152 102 L 2 102 L 2 102 A 2 2 0 0 1 0 100 L 0 2 L 0 2.0000000000000004 A 2 2 0 0 1 1.9999999999999996 0 Z" stroke-miterlimit="10" stroke-width="1.5" stroke-dasharray=""/></g><g><g transform="matrix(0.06,0,0,0.06,9.4,9.4)"><g transform="matrix(1,0,0,1,0,0)"><path fill="#393f44" stroke="none" id="_BD271F1C-575E-4066-B2E2-E5C4D4E4D767undefined" paint-order="stroke fill markers" d=" M 0 0 M 197.3 130.2 C 194.4 127.29999999999998 189.60000000000002 127.29999999999998 186.70000000000002 130.2 L 130.20000000000002 186.7 C 127.30000000000001 189.6 127.30000000000001 194.39999999999998 130.20000000000002 197.29999999999998 L 186.70000000000002 253.79999999999998 C 188.10000000000002 255.29999999999998 190.10000000000002 255.99999999999997 192.00000000000003 255.99999999999997 C 193.90000000000003 255.99999999999997 195.90000000000003 255.29999999999998 197.30000000000004 253.69999999999996 C 200.20000000000005 250.79999999999995 200.20000000000005 245.99999999999997 197.30000000000004 243.09999999999997 L 146.2 192 L 197.29999999999998 140.8 C 200.2 137.9 200.2 133.1 197.3 130.2 Z"/></g><g transform="matrix(1,0,0,1,0,0)"><path fill="#393f44" stroke="none" id="_BD271F1C-575E-4066-B2E2-E5C4D4E4D767undefined" paint-order="stroke fill markers" d=" M 0 0 M 261.3 130.2 C 258.40000000000003 127.29999999999998 253.60000000000002 127.29999999999998 250.70000000000002 130.2 C 247.8 133.1 247.8 137.89999999999998 250.70000000000002 140.79999999999998 L 301.8 191.89999999999998 L 250.7 243 C 247.79999999999998 245.9 247.79999999999998 250.7 250.7 253.6 C 252.1 255.29999999999998 254.1 256 256 256 C 257.9 256 259.9 255.3 261.3 253.8 L 317.8 197.3 C 320.7 194.4 320.7 189.60000000000002 317.8 186.70000000000002 L 261.3 130.2 Z"/></g><g transform="matrix(1,0,0,1,0,0)"><path fill="#393f44" stroke="none" id="_BD271F1C-575E-4066-B2E2-E5C4D4E4D767undefined" paint-order="stroke fill markers" d=" M 0 0 M 400 32 C 400 32 152.8 32 128 32 C 62 32 64 96 64 96 L 64 288 L 1 288 C 1 288 -4 416 78 416 L 320 416 C 368 416 384 368 384 336 C 384 314.2 384 224.4 384 160 L 448 160 L 448 96 C 448 96 449 32 400 32 Z M 0 0 M 78 383.9 C 68.5 383.9 61.6 381.09999999999997 55.5 374.9 C 43.4 362.4 37.5 339.59999999999997 34.9 320 L 256.9 320 C 257.09999999999997 322.7 257.29999999999995 325.4 257.59999999999997 328.2 C 259.99999999999994 351.59999999999997 264.7 370.09999999999997 271.9 383.9 L 78 383.9 L 78 383.9 Z M 0 0 M 352 336 C 352 345.9 349.6 360.3 342.9 371 C 337.2 380.1 330.4 384 320 384 C 285 384 288 288 288 288 L 96 288 L 96 96 L 96 95.9 L 96 95.10000000000001 C 96 90.60000000000001 97.6 78.30000000000001 104.7 71.20000000000002 C 106.5 69.40000000000002 111.9 64.00000000000001 128 64.00000000000001 L 356.5 64.00000000000001 C 354.4 72.80000000000001 352.8 81.80000000000001 352.2 89.9 C 352.2 90.5 352.09999999999997 91.10000000000001 352.09999999999997 91.7 C 352.09999999999997 92 352.09999999999997 92.3 352.09999999999997 92.60000000000001 C 352 94.8 352 96 352 96 L 352 160 L 352 336 Z"/></g></g></g><g transform="matrix(1,0,0,1,35,43.5)"><text fill="#000000" stroke="none" font-family="Open Sans" font-size="12pt" font-style="normal" font-weight="normal" text-decoration="normal" x="50.275001525878906" y="12" text-anchor="middle" dominant-baseline="alphabetic">Hello World 1</text></g></g><g id="_44CA97D2-D33A-405E-8200-DD5E7BDDD6FD" bpmn2nodeid="_44CA97D2-D33A-405E-8200-DD5E7BDDD6FD" transform="matrix(1,0,0,1,633,381)"><g><path fill="none" stroke="none"/></g><g transform="matrix(0.125,0,0,0.125,0,0)"><g transform="matrix(1,0,0,1,0,0)"><path fill="#fbefcf" stroke="none" id="_44CA97D2-D33A-405E-8200-DD5E7BDDD6FD?shapeType=BACKGROUND" paint-order="stroke fill markers" d=" M 0 0 M 444 224 C 444 263.9 434.2 300.8 414.4 334.5 C 394.7 368.2 368 394.9 334.4 414.5 C 300.79999999999995 434.1 263.9 444 224 444 C 184.10000000000002 444 147.2 434.2 113.5 414.4 C 79.8 394.7 53.1 368 33.5 334.4 C 13.899999999999999 300.79999999999995 4 263.9 4 224 C 4 184.10000000000002 13.8 147.2 33.6 113.5 C 53.400000000000006 79.80000000000001 80.1 53.1 113.6 33.5 C 147.1 13.899999999999999 184.1 4 224 4 C 263.9 4 300.8 13.8 334.5 33.6 C 368.2 53.400000000000006 394.9 80.1 414.5 113.6 C 434.1 147.1 444 184.1 444 224 Z"/></g><g><g transform="matrix(1,0,0,1,0,0)"><g transform="matrix(1,0,0,1,0,0)"><path fill="#e5a000" stroke="none" id="_44CA97D2-D33A-405E-8200-DD5E7BDDD6FD?shapeType=BORDER&amp;renderType=FILL" paint-order="stroke fill markers" d=" M 0 0 M 224 408 C 122.5 408 40 325.5 40 224 C 40 122.5 122.5 40 224 40 C 325.5 40 408 122.5 408 224 C 408 325.5 325.5 408 224 408 Z M 0 0 M 224 56 C 131.4 56 56 131.4 56 224 C 56 316.6 131.4 392 224 392 C 316.6 392 392 316.6 392 224 C 392 131.39999999999998 316.6 56 224 56 Z M 0 0 M 224 16 C 252.1 16 279.3 21.5 305 32.3 C 329.8 42.8 352 57.8 371.1 76.9 C 390.20000000000005 96.00000000000001 405.20000000000005 118.30000000000001 415.70000000000005 143 C 426.50000000000006 168.6 432.00000000000006 195.9 432.00000000000006 224 C 432.00000000000006 252.1 426.50000000000006 279.3 415.70000000000005 305 C 405.20000000000005 329.8 390.20000000000005 352 371.1 371.1 C 352 390.20000000000005 329.70000000000005 405.20000000000005 305 415.70000000000005 C 279.4 426.50000000000006 252.1 432.00000000000006 224 432.00000000000006 C 195.9 432.00000000000006 168.7 426.50000000000006 143 415.70000000000005 C 118.2 405.20000000000005 96 390.20000000000005 76.9 371.1 C 57.80000000000001 352 42.8 329.7 32.3 305 C 21.5 279.3 16 252.1 16 224 C 16 195.9 21.5 168.7 32.3 143 C 42.8 118.2 57.8 96 76.9 76.9 C 96.00000000000001 57.80000000000001 118.30000000000001 42.800000000000004 143 32.300000000000004 C 168.7 21.5 195.9 16 224 16 M 224 0 C 100.3 0 0 100.3 0 224 C 0 347.7 100.3 448 224 448 C 347.7 448 448 347.7 448 224 C 448 100.30000000000001 347.7 0 224 0 L 224 0 Z"/></g></g></g><g><g transform="matrix(1,0,0,1,0,0)"><g transform="matrix(1,0,0,1,0,0)"><path fill="#e5a000" stroke="none" id="_44CA97D2-D33A-405E-8200-DD5E7BDDD6FDundefined" paint-order="stroke fill markers" d=" M 0 0 M 222.9 147.4 L 222.9 147.4 L 304.2 228.7 C 304.2 228.79999999999998 304.2 228.79999999999998 304.2 228.79999999999998 L 223.1 310 C 223 310 223 310.1 222.9 310.1 L 222.8 310.1 C 222.70000000000002 310.1 222.70000000000002 310 222.70000000000002 310 L 213.50000000000003 300.8 L 213.40000000000003 300.8 L 213.50000000000003 300.8 L 250.10000000000002 264.2 L 277.40000000000003 236.89999999999998 L 144.2 236.89999999999998 L 144.2 220.89999999999998 L 277.29999999999995 220.89999999999998 L 250.09999999999997 193.59999999999997 L 213.49999999999997 156.79999999999995 L 222.9 147.4 M 222.8 131.3 C 218.5 131.3 214.70000000000002 132.9 211.60000000000002 136.10000000000002 L 202.3 145.50000000000003 C 199.10000000000002 148.50000000000003 197.5 152.30000000000004 197.5 156.70000000000002 C 197.5 161.1 199.1 164.9 202.3 167.9 L 238.9 204.7 L 142.9 204.7 C 138.5 204.7 135 206.29999999999998 132.3 209.39999999999998 C 129.60000000000002 212.49999999999997 128.3 216.29999999999998 128.3 220.7 L 128.3 236.7 C 128.3 241.1 129.60000000000002 244.89999999999998 132.3 248 C 135 251.10000000000002 138.5 252.7 142.9 252.7 L 238.9 252.7 L 202.3 289.3 C 199.10000000000002 292.5 197.5 296.3 197.5 300.7 C 197.5 305.09999999999997 199.1 308.9 202.3 312.09999999999997 L 211.70000000000002 321.49999999999994 C 214.9 324.59999999999997 218.70000000000002 326.09999999999997 222.9 326.09999999999997 C 227.3 326.09999999999997 231 324.59999999999997 234.3 321.49999999999994 L 315.70000000000005 240.09999999999994 C 318.80000000000007 236.99999999999994 320.30000000000007 233.19999999999993 320.30000000000007 228.69999999999993 C 320.30000000000007 224.09999999999994 318.80000000000007 220.39999999999992 315.70000000000005 217.49999999999994 L 234.30000000000004 136.19999999999993 C 231.1 132.9 227.3 131.3 222.8 131.3 L 222.8 131.3 Z"/></g></g></g></g><g transform="matrix(1,0,0,1,28,61)"/></g><g id="_53CEF50A-B946-4723-BD67-BAAEB89D3833" bpmn2nodeid="_53CEF50A-B946-4723-BD67-BAAEB89D3833" transform="matrix(1,0,0,1,633,264)"><g><path fill="none" stroke="none"/></g><g transform="matrix(0.125,0,0,0.125,0,0)"><g transform="matrix(1,0,0,1,0,0)"><path fill="#fbefcf" stroke="none" id="_53CEF50A-B946-4723-BD67-BAAEB89D3833?shapeType=BACKGROUND" paint-order="stroke fill markers" d=" M 0 0 M 444 224 C 444 263.9 434.2 300.8 414.4 334.5 C 394.7 368.2 368 394.9 334.4 414.5 C 300.79999999999995 434.1 263.9 444 224 444 C 184.10000000000002 444 147.2 434.2 113.5 414.4 C 79.8 394.7 53.1 368 33.5 334.4 C 13.899999999999999 300.79999999999995 4 263.9 4 224 C 4 184.10000000000002 13.8 147.2 33.6 113.5 C 53.400000000000006 79.80000000000001 80.1 53.1 113.6 33.5 C 147.1 13.899999999999999 184.1 4 224 4 C 263.9 4 300.8 13.8 334.5 33.6 C 368.2 53.400000000000006 394.9 80.1 414.5 113.6 C 434.1 147.1 444 184.1 444 224 Z"/></g><g><g transform="matrix(1,0,0,1,0,0)"><g transform="matrix(1,0,0,1,0,0)"><path fill="#e5a000" stroke="none" id="_53CEF50A-B946-4723-BD67-BAAEB89D3833?shapeType=BORDER&amp;renderType=FILL" paint-order="stroke fill markers" d=" M 0 0 M 224 408 C 122.5 408 40 325.5 40 224 C 40 122.5 122.5 40 224 40 C 325.5 40 408 122.5 408 224 C 408 325.5 325.5 408 224 408 Z M 0 0 M 224 56 C 131.4 56 56 131.4 56 224 C 56 316.6 131.4 392 224 392 C 316.6 392 392 316.6 392 224 C 392 131.39999999999998 316.6 56 224 56 Z M 0 0 M 224 16 C 252.1 16 279.3 21.5 305 32.3 C 329.8 42.8 352 57.8 371.1 76.9 C 390.20000000000005 96.00000000000001 405.20000000000005 118.30000000000001 415.70000000000005 143 C 426.50000000000006 168.6 432.00000000000006 195.9 432.00000000000006 224 C 432.00000000000006 252.1 426.50000000000006 279.3 415.70000000000005 305 C 405.20000000000005 329.8 390.20000000000005 352 371.1 371.1 C 352 390.20000000000005 329.70000000000005 405.20000000000005 305 415.70000000000005 C 279.4 426.50000000000006 252.1 432.00000000000006 224 432.00000000000006 C 195.9 432.00000000000006 168.7 426.50000000000006 143 415.70000000000005 C 118.2 405.20000000000005 96 390.20000000000005 76.9 371.1 C 57.80000000000001 352 42.8 329.7 32.3 305 C 21.5 279.3 16 252.1 16 224 C 16 195.9 21.5 168.7 32.3 143 C 42.8 118.2 57.8 96 76.9 76.9 C 96.00000000000001 57.80000000000001 118.30000000000001 42.800000000000004 143 32.300000000000004 C 168.7 21.5 195.9 16 224 16 M 224 0 C 100.3 0 0 100.3 0 224 C 0 347.7 100.3 448 224 448 C 347.7 448 448 347.7 448 224 C 448 100.30000000000001 347.7 0 224 0 L 224 0 Z"/></g></g></g><g><g transform="matrix(1,0,0,1,0,0)"><g transform="matrix(1,0,0,1,0,0)"><path fill="#e5a000" stroke="none" id="_53CEF50A-B946-4723-BD67-BAAEB89D3833undefined" paint-order="stroke fill markers" d=" M 0 0 M 222.9 147.4 L 222.9 147.4 L 304.2 228.7 C 304.2 228.79999999999998 304.2 228.79999999999998 304.2 228.79999999999998 L 223.1 310 C 223 310 223 310.1 222.9 310.1 L 222.8 310.1 C 222.70000000000002 310.1 222.70000000000002 310 222.70000000000002 310 L 213.50000000000003 300.8 L 213.40000000000003 300.8 L 213.50000000000003 300.8 L 250.10000000000002 264.2 L 277.40000000000003 236.89999999999998 L 144.2 236.89999999999998 L 144.2 220.89999999999998 L 277.29999999999995 220.89999999999998 L 250.09999999999997 193.59999999999997 L 213.49999999999997 156.79999999999995 L 222.9 147.4 M 222.8 131.3 C 218.5 131.3 214.70000000000002 132.9 211.60000000000002 136.10000000000002 L 202.3 145.50000000000003 C 199.10000000000002 148.50000000000003 197.5 152.30000000000004 197.5 156.70000000000002 C 197.5 161.1 199.1 164.9 202.3 167.9 L 238.9 204.7 L 142.9 204.7 C 138.5 204.7 135 206.29999999999998 132.3 209.39999999999998 C 129.60000000000002 212.49999999999997 128.3 216.29999999999998 128.3 220.7 L 128.3 236.7 C 128.3 241.1 129.60000000000002 244.89999999999998 132.3 248 C 135 251.10000000000002 138.5 252.7 142.9 252.7 L 238.9 252.7 L 202.3 289.3 C 199.10000000000002 292.5 197.5 296.3 197.5 300.7 C 197.5 305.09999999999997 199.1 308.9 202.3 312.09999999999997 L 211.70000000000002 321.49999999999994 C 214.9 324.59999999999997 218.70000000000002 326.09999999999997 222.9 326.09999999999997 C 227.3 326.09999999999997 231 324.59999999999997 234.3 321.49999999999994 L 315.70000000000005 240.09999999999994 C 318.80000000000007 236.99999999999994 320.30000000000007 233.19999999999993 320.30000000000007 228.69999999999993 C 320.30000000000007 224.09999999999994 318.80000000000007 220.39999999999992 315.70000000000005 217.49999999999994 L 234.30000000000004 136.19999999999993 C 231.1 132.9 227.3 131.3 222.8 131.3 L 222.8 131.3 Z"/></g></g></g></g><g transform="matrix(1,0,0,1,28,61)"/></g><g id="_CF8716A5-CD30-46F3-8E27-1E95DC55924F" bpmn2nodeid="_CF8716A5-CD30-46F3-8E27-1E95DC55924F" transform="matrix(1,0,0,1,1003,264)"><g><path fill="none" stroke="none"/></g><g transform="matrix(0.125,0,0,0.125,0,0)"><g transform="matrix(1,0,0,1,0,0)"><path fill="#fce7e7" stroke="none" id="_CF8716A5-CD30-46F3-8E27-1E95DC55924F?shapeType=BACKGROUND" paint-order="stroke fill markers" d=" M 0 0 M 444 224 C 444 263.9 434.2 300.8 414.4 334.5 C 394.7 368.2 368 394.9 334.4 414.5 C 300.79999999999995 434.1 263.9 444 224 444 C 184.10000000000002 444 147.2 434.2 113.5 414.4 C 79.8 394.7 53.1 368 33.5 334.4 C 13.899999999999999 300.79999999999995 4 263.9 4 224 C 4 184.10000000000002 13.8 147.2 33.6 113.5 C 53.400000000000006 79.80000000000001 80.1 53.1 113.6 33.5 C 147.1 13.899999999999999 184.1 4 224 4 C 263.9 4 300.8 13.8 334.5 33.6 C 368.2 53.400000000000006 394.9 80.1 414.5 113.6 C 434.1 147.1 444 184.1 444 224 Z"/></g><g><g transform="matrix(1,0,0,1,0,0)"><g transform="matrix(1,0,0,1,0,0)"><path fill="#a30000" stroke="none" id="_CF8716A5-CD30-46F3-8E27-1E95DC55924F?shapeType=BORDER&amp;renderType=FILL" paint-order="stroke fill markers" d=" M 0 0 M 224 0 C 100.3 0 0 100.3 0 224 C 0 347.7 100.3 448 224 448 C 347.7 448 448 347.7 448 224 C 448 100.30000000000001 347.7 0 224 0 Z M 0 0 M 224 400 C 126.8 400 48 321.2 48 224 C 48 126.80000000000001 126.8 48 224 48 C 321.2 48 400 126.8 400 224 C 400 321.2 321.2 400 224 400 Z"/></g></g></g></g><g transform="matrix(1,0,0,1,28,61)"/></g><g id="_05A9AF1A-0807-47D7-829E-D47F7CFF1FF2" bpmn2nodeid="_05A9AF1A-0807-47D7-829E-D47F7CFF1FF2" transform="matrix(1,0,0,1,633,147)"><g><path fill="none" stroke="none"/></g><g transform="matrix(0.125,0,0,0.125,0,0)"><g transform="matrix(1,0,0,1,0,0)"><path fill="#fbefcf" stroke="none" id="_05A9AF1A-0807-47D7-829E-D47F7CFF1FF2?shapeType=BACKGROUND" paint-order="stroke fill markers" d=" M 0 0 M 444 224 C 444 263.9 434.2 300.8 414.4 334.5 C 394.7 368.2 368 394.9 334.4 414.5 C 300.79999999999995 434.1 263.9 444 224 444 C 184.10000000000002 444 147.2 434.2 113.5 414.4 C 79.8 394.7 53.1 368 33.5 334.4 C 13.899999999999999 300.79999999999995 4 263.9 4 224 C 4 184.10000000000002 13.8 147.2 33.6 113.5 C 53.400000000000006 79.80000000000001 80.1 53.1 113.6 33.5 C 147.1 13.899999999999999 184.1 4 224 4 C 263.9 4 300.8 13.8 334.5 33.6 C 368.2 53.400000000000006 394.9 80.1 414.5 113.6 C 434.1 147.1 444 184.1 444 224 Z"/></g><g><g transform="matrix(1,0,0,1,0,0)"><g transform="matrix(1,0,0,1,0,0)"><path fill="#e5a000" stroke="none" id="_05A9AF1A-0807-47D7-829E-D47F7CFF1FF2?shapeType=BORDER&amp;renderType=FILL" paint-order="stroke fill markers" d=" M 0 0 M 224 408 C 122.5 408 40 325.5 40 224 C 40 122.5 122.5 40 224 40 C 325.5 40 408 122.5 408 224 C 408 325.5 325.5 408 224 408 Z M 0 0 M 224 56 C 131.4 56 56 131.4 56 224 C 56 316.6 131.4 392 224 392 C 316.6 392 392 316.6 392 224 C 392 131.39999999999998 316.6 56 224 56 Z M 0 0 M 224 16 C 252.1 16 279.3 21.5 305 32.3 C 329.8 42.8 352 57.8 371.1 76.9 C 390.20000000000005 96.00000000000001 405.20000000000005 118.30000000000001 415.70000000000005 143 C 426.50000000000006 168.6 432.00000000000006 195.9 432.00000000000006 224 C 432.00000000000006 252.1 426.50000000000006 279.3 415.70000000000005 305 C 405.20000000000005 329.8 390.20000000000005 352 371.1 371.1 C 352 390.20000000000005 329.70000000000005 405.20000000000005 305 415.70000000000005 C 279.4 426.50000000000006 252.1 432.00000000000006 224 432.00000000000006 C 195.9 432.00000000000006 168.7 426.50000000000006 143 415.70000000000005 C 118.2 405.20000000000005 96 390.20000000000005 76.9 371.1 C 57.80000000000001 352 42.8 329.7 32.3 305 C 21.5 279.3 16 252.1 16 224 C 16 195.9 21.5 168.7 32.3 143 C 42.8 118.2 57.8 96 76.9 76.9 C 96.00000000000001 57.80000000000001 118.30000000000001 42.800000000000004 143 32.300000000000004 C 168.7 21.5 195.9 16 224 16 M 224 0 C 100.3 0 0 100.3 0 224 C 0 347.7 100.3 448 224 448 C 347.7 448 448 347.7 448 224 C 448 100.30000000000001 347.7 0 224 0 L 224 0 Z"/></g></g></g><g><g transform="matrix(1,0,0,1,0,0)"><g transform="matrix(1,0,0,1,0,0)"><path fill="#e5a000" stroke="none" id="_05A9AF1A-0807-47D7-829E-D47F7CFF1FF2undefined" paint-order="stroke fill markers" d=" M 0 0 M 222.9 147.4 L 222.9 147.4 L 304.2 228.7 C 304.2 228.79999999999998 304.2 228.79999999999998 304.2 228.79999999999998 L 223.1 310 C 223 310 223 310.1 222.9 310.1 L 222.8 310.1 C 222.70000000000002 310.1 222.70000000000002 310 222.70000000000002 310 L 213.50000000000003 300.8 L 213.40000000000003 300.8 L 213.50000000000003 300.8 L 250.10000000000002 264.2 L 277.40000000000003 236.89999999999998 L 144.2 236.89999999999998 L 144.2 220.89999999999998 L 277.29999999999995 220.89999999999998 L 250.09999999999997 193.59999999999997 L 213.49999999999997 156.79999999999995 L 222.9 147.4 M 222.8 131.3 C 218.5 131.3 214.70000000000002 132.9 211.60000000000002 136.10000000000002 L 202.3 145.50000000000003 C 199.10000000000002 148.50000000000003 197.5 152.30000000000004 197.5 156.70000000000002 C 197.5 161.1 199.1 164.9 202.3 167.9 L 238.9 204.7 L 142.9 204.7 C 138.5 204.7 135 206.29999999999998 132.3 209.39999999999998 C 129.60000000000002 212.49999999999997 128.3 216.29999999999998 128.3 220.7 L 128.3 236.7 C 128.3 241.1 129.60000000000002 244.89999999999998 132.3 248 C 135 251.10000000000002 138.5 252.7 142.9 252.7 L 238.9 252.7 L 202.3 289.3 C 199.10000000000002 292.5 197.5 296.3 197.5 300.7 C 197.5 305.09999999999997 199.1 308.9 202.3 312.09999999999997 L 211.70000000000002 321.49999999999994 C 214.9 324.59999999999997 218.70000000000002 326.09999999999997 222.9 326.09999999999997 C 227.3 326.09999999999997 231 324.59999999999997 234.3 321.49999999999994 L 315.70000000000005 240.09999999999994 C 318.80000000000007 236.99999999999994 320.30000000000007 233.19999999999993 320.30000000000007 228.69999999999993 C 320.30000000000007 224.09999999999994 318.80000000000007 220.39999999999992 315.70000000000005 217.49999999999994 L 234.30000000000004 136.19999999999993 C 231.1 132.9 227.3 131.3 222.8 131.3 L 222.8 131.3 Z"/></g></g></g></g><g transform="matrix(1,0,0,1,28,61)"/></g><g id="_7AEFDEAA-8A48-4605-9AD2-745C0D976BD4" bpmn2nodeid="_7AEFDEAA-8A48-4605-9AD2-745C0D976BD4" transform="matrix(1,0,0,1,769,241)"><g><path fill="none" stroke="none"/></g><g transform="matrix(1,0,0,1,0,0)"><path fill="#ffffff" stroke="none" id="_7AEFDEAA-8A48-4605-9AD2-745C0D976BD4?shapeType=BACKGROUND" paint-order="stroke fill markers" d=" M 2 0 L 152 0 L 152 0 A 2 2 0 0 1 154 2 L 154 100 L 154 100 A 2 2 0 0 1 152 102 L 2 102 L 2 102 A 2 2 0 0 1 0 100 L 0 2 L 0 2.0000000000000004 A 2 2 0 0 1 1.9999999999999996 0 Z"/></g><g transform="matrix(1,0,0,1,0,0)"><path fill="none" stroke="#000000" id="_7AEFDEAA-8A48-4605-9AD2-745C0D976BD4?shapeType=BORDER&amp;renderType=STROKE" paint-order="fill stroke markers" d=" M 2 0 L 152 0 L 152 0 A 2 2 0 0 1 154 2 L 154 100 L 154 100 A 2 2 0 0 1 152 102 L 2 102 L 2 102 A 2 2 0 0 1 0 100 L 0 2 L 0 2.0000000000000004 A 2 2 0 0 1 1.9999999999999996 0 Z" stroke-miterlimit="10" stroke-width="1.5" stroke-dasharray=""/></g><g><g transform="matrix(0.06,0,0,0.06,9.4,9.4)"><g transform="matrix(1,0,0,1,0,0)"><path fill="#393f44" stroke="none" id="_7AEFDEAA-8A48-4605-9AD2-745C0D976BD4undefined" paint-order="stroke fill markers" d=" M 0 0 M 197.3 130.2 C 194.4 127.29999999999998 189.60000000000002 127.29999999999998 186.70000000000002 130.2 L 130.20000000000002 186.7 C 127.30000000000001 189.6 127.30000000000001 194.39999999999998 130.20000000000002 197.29999999999998 L 186.70000000000002 253.79999999999998 C 188.10000000000002 255.29999999999998 190.10000000000002 255.99999999999997 192.00000000000003 255.99999999999997 C 193.90000000000003 255.99999999999997 195.90000000000003 255.29999999999998 197.30000000000004 253.69999999999996 C 200.20000000000005 250.79999999999995 200.20000000000005 245.99999999999997 197.30000000000004 243.09999999999997 L 146.2 192 L 197.29999999999998 140.8 C 200.2 137.9 200.2 133.1 197.3 130.2 Z"/></g><g transform="matrix(1,0,0,1,0,0)"><path fill="#393f44" stroke="none" id="_7AEFDEAA-8A48-4605-9AD2-745C0D976BD4undefined" paint-order="stroke fill markers" d=" M 0 0 M 261.3 130.2 C 258.40000000000003 127.29999999999998 253.60000000000002 127.29999999999998 250.70000000000002 130.2 C 247.8 133.1 247.8 137.89999999999998 250.70000000000002 140.79999999999998 L 301.8 191.89999999999998 L 250.7 243 C 247.79999999999998 245.9 247.79999999999998 250.7 250.7 253.6 C 252.1 255.29999999999998 254.1 256 256 256 C 257.9 256 259.9 255.3 261.3 253.8 L 317.8 197.3 C 320.7 194.4 320.7 189.60000000000002 317.8 186.70000000000002 L 261.3 130.2 Z"/></g><g transform="matrix(1,0,0,1,0,0)"><path fill="#393f44" stroke="none" id="_7AEFDEAA-8A48-4605-9AD2-745C0D976BD4undefined" paint-order="stroke fill markers" d=" M 0 0 M 400 32 C 400 32 152.8 32 128 32 C 62 32 64 96 64 96 L 64 288 L 1 288 C 1 288 -4 416 78 416 L 320 416 C 368 416 384 368 384 336 C 384 314.2 384 224.4 384 160 L 448 160 L 448 96 C 448 96 449 32 400 32 Z M 0 0 M 78 383.9 C 68.5 383.9 61.6 381.09999999999997 55.5 374.9 C 43.4 362.4 37.5 339.59999999999997 34.9 320 L 256.9 320 C 257.09999999999997 322.7 257.29999999999995 325.4 257.59999999999997 328.2 C 259.99999999999994 351.59999999999997 264.7 370.09999999999997 271.9 383.9 L 78 383.9 L 78 383.9 Z M 0 0 M 352 336 C 352 345.9 349.6 360.3 342.9 371 C 337.2 380.1 330.4 384 320 384 C 285 384 288 288 288 288 L 96 288 L 96 96 L 96 95.9 L 96 95.10000000000001 C 96 90.60000000000001 97.6 78.30000000000001 104.7 71.20000000000002 C 106.5 69.40000000000002 111.9 64.00000000000001 128 64.00000000000001 L 356.5 64.00000000000001 C 354.4 72.80000000000001 352.8 81.80000000000001 352.2 89.9 C 352.2 90.5 352.09999999999997 91.10000000000001 352.09999999999997 91.7 C 352.09999999999997 92 352.09999999999997 92.3 352.09999999999997 92.60000000000001 C 352 94.8 352 96 352 96 L 352 160 L 352 336 Z"/></g></g></g><g transform="matrix(1,0,0,1,35,43.5)"><text fill="#000000" stroke="none" font-family="Open Sans" font-size="12pt" font-style="normal" font-weight="normal" text-decoration="normal" x="50.275001525878906" y="12" text-anchor="middle" dominant-baseline="alphabetic">Hello World 2</text></g></g><g id="_5DED81F1-20FC-491F-BF2D-8F3FA136BEF3" bpmn2nodeid="_5DED81F1-20FC-491F-BF2D-8F3FA136BEF3"><g><path fill="none" stroke="#000000" paint-order="fill stroke markers" d=" M 689 175 L 754 175" stroke-miterlimit="10" stroke-dasharray=""/></g><g transform="matrix(1,0,0,1,689,175)"/><g transform="matrix(6.123233995736766e-17,1,-1,6.123233995736766e-17,769,170)"><path fill="#000000" stroke="#000000" paint-order="fill stroke markers" d=" M 10 15 L 0 15 L 5 0 Z" stroke-miterlimit="10" stroke-dasharray=""/></g><g transform="matrix(1,0,0,1,689,165)"/></g><g id="_9C4145A0-FF59-4091-BEBE-511898259AF4" bpmn2nodeid="_9C4145A0-FF59-4091-BEBE-511898259AF4"><g><path fill="none" stroke="#000000" paint-order="fill stroke markers" d=" M 923 175 L 988 175" stroke-miterlimit="10" stroke-dasharray=""/></g><g transform="matrix(1,0,0,1,923,175)"/><g transform="matrix(6.123233995736766e-17,1,-1,6.123233995736766e-17,1003,170)"><path fill="#000000" stroke="#000000" paint-order="fill stroke markers" d=" M 10 15 L 0 15 L 5 0 Z" stroke-miterlimit="10" stroke-dasharray=""/></g><g transform="matrix(1,0,0,1,923,165)"/></g><g id="_2C1DFA54-778A-4E3D-855B-458F6B4B3E09" bpmn2nodeid="_2C1DFA54-778A-4E3D-855B-458F6B4B3E09"><g><path fill="none" stroke="#000000" paint-order="fill stroke markers" d=" M 689 292 L 754 292" stroke-miterlimit="10" stroke-dasharray=""/></g><g transform="matrix(1,0,0,1,689,292)"/><g transform="matrix(6.123233995736766e-17,1,-1,6.123233995736766e-17,769,287)"><path fill="#000000" stroke="#000000" paint-order="fill stroke markers" d=" M 10 15 L 0 15 L 5 0 Z" stroke-miterlimit="10" stroke-dasharray=""/></g><g transform="matrix(1,0,0,1,689,282)"/></g><g id="_95E425F2-1F1B-4770-9D2F-597D69DE498B" bpmn2nodeid="_95E425F2-1F1B-4770-9D2F-597D69DE498B"><g><path fill="none" stroke="#000000" paint-order="fill stroke markers" d=" M 923 292 L 988 292" stroke-miterlimit="10" stroke-dasharray=""/></g><g transform="matrix(1,0,0,1,923,292)"/><g transform="matrix(6.123233995736766e-17,1,-1,6.123233995736766e-17,1003,287)"><path fill="#000000" stroke="#000000" paint-order="fill stroke markers" d=" M 10 15 L 0 15 L 5 0 Z" stroke-miterlimit="10" stroke-dasharray=""/></g><g transform="matrix(1,0,0,1,923,282)"/></g><g id="_55BC8C66-5CAE-4AEA-9EA8-FBD5DAE5E992" bpmn2nodeid="_55BC8C66-5CAE-4AEA-9EA8-FBD5DAE5E992"><g><path fill="none" stroke="#000000" paint-order="fill stroke markers" d=" M 689 409 L 754 409" stroke-miterlimit="10" stroke-dasharray=""/></g><g transform="matrix(1,0,0,1,689,409)"/><g transform="matrix(6.123233995736766e-17,1,-1,6.123233995736766e-17,769,404)"><path fill="#000000" stroke="#000000" paint-order="fill stroke markers" d=" M 10 15 L 0 15 L 5 0 Z" stroke-miterlimit="10" stroke-dasharray=""/></g><g transform="matrix(1,0,0,1,689,399)"/></g><g id="_1F2BE71A-605D-4363-9DC7-26AEA4305595" bpmn2nodeid="_1F2BE71A-605D-4363-9DC7-26AEA4305595"><g><path fill="none" stroke="#000000" paint-order="fill stroke markers" d=" M 923 409 L 988 409" stroke-miterlimit="10" stroke-dasharray=""/></g><g transform="matrix(1,0,0,1,923,409)"/><g transform="matrix(6.123233995736766e-17,1,-1,6.123233995736766e-17,1003,404)"><path fill="#000000" stroke="#000000" paint-order="fill stroke markers" d=" M 10 15 L 0 15 L 5 0 Z" stroke-miterlimit="10" stroke-dasharray=""/></g><g transform="matrix(1,0,0,1,923,399)"/></g><g transform="matrix(1,0,0,1,1003,381)"/><g transform="matrix(1,0,0,1,769,358)"/><g transform="matrix(1,0,0,1,1003,147)"/><g transform="matrix(1,0,0,1,769,124)"/><g transform="matrix(1,0,0,1,633,381)"/><g transform="matrix(1,0,0,1,633,264)"/><g transform="matrix(1,0,0,1,1003,264)"/><g transform="matrix(1,0,0,1,633,147)"/><g transform="matrix(1,0,0,1,769,241)"/><g id="_A8D864DF-59D4-443E-B267-75F4F3AE6A58" bpmn2nodeid="_A8D864DF-59D4-443E-B267-75F4F3AE6A58" transform="matrix(1,0,0,1,364,264)"><g><path fill="none" stroke="none"/></g><g transform="matrix(0.125,0,0,0.125,0,0)"><g transform="matrix(1,0,0,1,0,0)"><path fill="#e8fae6" stroke="none" id="_A8D864DF-59D4-443E-B267-75F4F3AE6A58?shapeType=BACKGROUND" paint-order="stroke fill markers" d=" M 0 0 M 444 224 C 444 263.9 434.2 300.8 414.4 334.5 C 394.7 368.2 368 394.9 334.4 414.5 C 300.79999999999995 434.1 263.9 444 224 444 C 184.10000000000002 444 147.2 434.2 113.5 414.4 C 79.8 394.7 53.1 368 33.5 334.4 C 13.899999999999999 300.79999999999995 4 263.9 4 224 C 4 184.10000000000002 13.8 147.2 33.6 113.5 C 53.400000000000006 79.80000000000001 80.1 53.1 113.6 33.5 C 147.1 13.899999999999999 184.1 4 224 4 C 263.9 4 300.8 13.8 334.5 33.6 C 368.2 53.400000000000006 394.9 80.1 414.5 113.6 C 434.1 147.1 444 184.1 444 224 Z"/></g><g><g transform="matrix(1,0,0,1,0,0)"><g transform="matrix(1,0,0,1,0,0)"><path fill="rgb(74,162,65)" stroke="none" id="_A8D864DF-59D4-443E-B267-75F4F3AE6A58?shapeType=BORDER&amp;renderType=FILL" paint-order="stroke fill markers" d=" M 0 0 M 224 0 C 100.3 0 0 100.3 0 224 C 0 347.7 100.3 448 224 448 C 347.7 448 448 347.7 448 224 C 448 100.30000000000001 347.7 0 224 0 Z M 0 0 M 224 432 C 109.1 432 16 338.9 16 224 C 16 109.10000000000002 109.1 16 224 16 C 338.9 16 432 109.1 432 224 C 432 338.9 338.9 432 224 432 Z"/></g></g></g></g><g transform="matrix(1,0,0,1,28,61)"/></g><g id="_11C5056E-A633-45D5-B33D-EDBAF5925918" bpmn2nodeid="_11C5056E-A633-45D5-B33D-EDBAF5925918" transform="matrix(1,0,0,1,497,264)"><g><path fill="none" stroke="none"/></g><g transform="matrix(0.125,0,0,0.125,0,0)"><g transform="matrix(1,0,0,1,0,0)"><path fill="#bedee1" stroke="none" id="_11C5056E-A633-45D5-B33D-EDBAF5925918?shapeType=BACKGROUND" paint-order="stroke fill markers" d=" M 0 0 M 444 224 C 444 263.9 434.2 300.8 414.4 334.5 C 394.7 368.2 368 394.9 334.4 414.5 C 300.79999999999995 434.1 263.9 444 224 444 C 184.10000000000002 444 147.2 434.2 113.5 414.4 C 79.8 394.7 53.1 368 33.5 334.4 C 13.899999999999999 300.79999999999995 4 263.9 4 224 C 4 184.10000000000002 13.8 147.2 33.6 113.5 C 53.400000000000006 79.80000000000001 80.1 53.1 113.6 33.5 C 147.1 13.899999999999999 184.1 4 224 4 C 263.9 4 300.8 13.8 334.5 33.6 C 368.2 53.400000000000006 394.9 80.1 414.5 113.6 C 434.1 147.1 444 184.1 444 224 Z"/></g><g><g transform="matrix(1,0,0,1,0,0)"><g transform="matrix(1,0,0,1,0,0)"><path fill="rgb(0,122,135)" stroke="none" id="_11C5056E-A633-45D5-B33D-EDBAF5925918?shapeType=BORDER&amp;renderType=FILL" paint-order="stroke fill markers" d=" M 0 0 M 224 408 C 122.5 408 40 325.5 40 224 C 40 122.5 122.5 40 224 40 C 325.5 40 408 122.5 408 224 C 408 325.5 325.5 408 224 408 Z M 0 0 M 224 56 C 131.4 56 56 131.4 56 224 C 56 316.6 131.4 392 224 392 C 316.6 392 392 316.6 392 224 C 392 131.39999999999998 316.6 56 224 56 Z M 0 0 M 224 16 C 252.1 16 279.3 21.5 305 32.3 C 329.8 42.8 352 57.8 371.1 76.9 C 390.20000000000005 96.00000000000001 405.20000000000005 118.30000000000001 415.70000000000005 143 C 426.50000000000006 168.6 432.00000000000006 195.9 432.00000000000006 224 C 432.00000000000006 252.1 426.50000000000006 279.3 415.70000000000005 305 C 405.20000000000005 329.8 390.20000000000005 352 371.1 371.1 C 352 390.20000000000005 329.70000000000005 405.20000000000005 305 415.70000000000005 C 279.4 426.50000000000006 252.1 432.00000000000006 224 432.00000000000006 C 195.9 432.00000000000006 168.7 426.50000000000006 143 415.70000000000005 C 118.2 405.20000000000005 96 390.20000000000005 76.9 371.1 C 57.80000000000001 352 42.8 329.7 32.3 305 C 21.5 279.3 16 252.1 16 224 C 16 195.9 21.5 168.7 32.3 143 C 42.8 118.2 57.8 96 76.9 76.9 C 96.00000000000001 57.80000000000001 118.30000000000001 42.800000000000004 143 32.300000000000004 C 168.7 21.5 195.9 16 224 16 M 224 0 C 100.3 0 0 100.3 0 224 C 0 347.7 100.3 448 224 448 C 347.7 448 448 347.7 448 224 C 448 100.30000000000001 347.7 0 224 0 L 224 0 Z"/></g></g></g><g><g transform="matrix(1,0,0,1,0,0)"><g transform="matrix(1,0,0,1,0,0)"><path fill="#007a87" stroke="none" id="_11C5056E-A633-45D5-B33D-EDBAF5925918undefined" paint-order="stroke fill markers" d=" M 0 0 M 222.8 131.3 C 218.5 131.3 214.70000000000002 132.9 211.60000000000002 136.10000000000002 L 202.3 145.50000000000003 C 199.10000000000002 148.50000000000003 197.5 152.30000000000004 197.5 156.70000000000002 C 197.5 161.1 199.1 164.9 202.3 167.9 L 238.9 204.7 L 142.9 204.7 C 138.5 204.7 135 206.29999999999998 132.3 209.39999999999998 C 129.60000000000002 212.49999999999997 128.3 216.29999999999998 128.3 220.7 L 128.3 236.7 C 128.3 241.1 129.60000000000002 244.89999999999998 132.3 248 C 135 251.10000000000002 138.5 252.7 142.9 252.7 L 238.9 252.7 L 202.3 289.3 C 199.10000000000002 292.5 197.5 296.3 197.5 300.7 C 197.5 305.09999999999997 199.1 308.9 202.3 312.09999999999997 L 211.70000000000002 321.49999999999994 C 214.9 324.59999999999997 218.70000000000002 326.09999999999997 222.9 326.09999999999997 C 227.3 326.09999999999997 231 324.59999999999997 234.3 321.49999999999994 L 315.70000000000005 240.09999999999994 C 318.80000000000007 236.99999999999994 320.30000000000007 233.19999999999993 320.30000000000007 228.69999999999993 C 320.30000000000007 224.09999999999994 318.80000000000007 220.39999999999992 315.70000000000005 217.49999999999994 L 234.30000000000004 136.19999999999993 C 231.1 132.9 227.3 131.3 222.8 131.3 L 222.8 131.3 Z"/></g></g></g></g><g transform="matrix(1,0,0,1,28,61)"/></g><g id="_E6256050-AA8C-4D7D-A696-418429F017E3" bpmn2nodeid="_E6256050-AA8C-4D7D-A696-418429F017E3" transform="matrix(1,0,0,1,0,0)"><g><path fill="none" stroke="rgb(0,0,0)" paint-order="fill stroke markers" d=" M 420 292 L 482 292" stroke-miterlimit="10" stroke-dasharray=""/></g><g transform="matrix(1,0,0,1,420,292)"/><g transform="matrix(6.123233995736766e-17,1,-1,6.123233995736766e-17,497,287)"><path fill="rgb(0,0,0)" stroke="rgb(0,0,0)" paint-order="fill stroke markers" d=" M 10 15 L 0 15 L 5 0 Z" stroke-miterlimit="10" stroke-dasharray=""/></g><g transform="matrix(1,0,0,1,420,282)"/></g><g transform="matrix(1,0,0,1,364,264)"/><g transform="matrix(1,0,0,1,497,264)"/></g></g></svg>