<svg version="1.1" xmlns="http://www.w3.org/2000/svg" xmlns:xlink="http://www.w3.org/1999/xlink" width="1493" height="665" viewBox="0 0 1493 665"><defs/><g transform="matrix(1,0,0,1,0,0)"><g><g><g><path fill="none" stroke="#d3d3d3" paint-order="fill stroke markers" d=" M 0 0 L 1200 0" stroke-miterlimit="10" stroke-opacity="0.8" stroke-dasharray="5"/></g><g><path fill="none" stroke="#d3d3d3" paint-order="fill stroke markers" d=" M 0 0 L 0 800" stroke-miterlimit="10" stroke-opacity="0.8" stroke-dasharray="5"/></g></g><g id="_6E341054-D60E-4283-915D-4A7801605CFD" bpmn2nodeid="_6E341054-D60E-4283-915D-4A7801605CFD" transform="matrix(1,0,0,1,1153,513)"><g><path fill="none" stroke="none"/></g><g transform="matrix(1,0,0,1,0,0)"><path fill="#ffffff" stroke="none" id="_6E341054-D60E-4283-915D-4A7801605CFD?shapeType=BACKGROUND" paint-order="stroke fill markers" d=" M 2 0 L 152 0 L 152 0 A 2 2 0 0 1 154 2 L 154 100 L 154 100 A 2 2 0 0 1 152 102 L 2 102 L 2 102 A 2 2 0 0 1 0 100 L 0 2 L 0 2.0000000000000004 A 2 2 0 0 1 1.9999999999999996 0 Z"/></g><g transform="matrix(1,0,0,1,0,0)"><path fill="none" stroke="#000000" id="_6E341054-D60E-4283-915D-4A7801605CFD?shapeType=BORDER&amp;renderType=STROKE" paint-order="fill stroke markers" d=" M 2 0 L 152 0 L 152 0 A 2 2 0 0 1 154 2 L 154 100 L 154 100 A 2 2 0 0 1 152 102 L 2 102 L 2 102 A 2 2 0 0 1 0 100 L 0 2 L 0 2.0000000000000004 A 2 2 0 0 1 1.9999999999999996 0 Z" stroke-miterlimit="10" stroke-width="1.5" stroke-dasharray=""/></g><g><g transform="matrix(0.06,0,0,0.06,9.4,9.4)"><g transform="matrix(1,0,0,1,0,0)"><path fill="#393f44" stroke="none" id="_6E341054-D60E-4283-915D-4A7801605CFDundefined" paint-order="stroke fill markers" d=" M 0 0 M 197.3 130.2 C 194.4 127.29999999999998 189.60000000000002 127.29999999999998 186.70000000000002 130.2 L 130.20000000000002 186.7 C 127.30000000000001 189.6 127.30000000000001 194.39999999999998 130.20000000000002 197.29999999999998 L 186.70000000000002 253.79999999999998 C 188.10000000000002 255.29999999999998 190.10000000000002 255.99999999999997 192.00000000000003 255.99999999999997 C 193.90000000000003 255.99999999999997 195.90000000000003 255.29999999999998 197.30000000000004 253.69999999999996 C 200.20000000000005 250.79999999999995 200.20000000000005 245.99999999999997 197.30000000000004 243.09999999999997 L 146.2 192 L 197.29999999999998 140.8 C 200.2 137.9 200.2 133.1 197.3 130.2 Z"/></g><g transform="matrix(1,0,0,1,0,0)"><path fill="#393f44" stroke="none" id="_6E341054-D60E-4283-915D-4A7801605CFDundefined" paint-order="stroke fill markers" d=" M 0 0 M 261.3 130.2 C 258.40000000000003 127.29999999999998 253.60000000000002 127.29999999999998 250.70000000000002 130.2 C 247.8 133.1 247.8 137.89999999999998 250.70000000000002 140.79999999999998 L 301.8 191.89999999999998 L 250.7 243 C 247.79999999999998 245.9 247.79999999999998 250.7 250.7 253.6 C 252.1 255.29999999999998 254.1 256 256 256 C 257.9 256 259.9 255.3 261.3 253.8 L 317.8 197.3 C 320.7 194.4 320.7 189.60000000000002 317.8 186.70000000000002 L 261.3 130.2 Z"/></g><g transform="matrix(1,0,0,1,0,0)"><path fill="#393f44" stroke="none" id="_6E341054-D60E-4283-915D-4A7801605CFDundefined" paint-order="stroke fill markers" d=" M 0 0 M 400 32 C 400 32 152.8 32 128 32 C 62 32 64 96 64 96 L 64 288 L 1 288 C 1 288 -4 416 78 416 L 320 416 C 368 416 384 368 384 336 C 384 314.2 384 224.4 384 160 L 448 160 L 448 96 C 448 96 449 32 400 32 Z M 0 0 M 78 383.9 C 68.5 383.9 61.6 381.09999999999997 55.5 374.9 C 43.4 362.4 37.5 339.59999999999997 34.9 320 L 256.9 320 C 257.09999999999997 322.7 257.29999999999995 325.4 257.59999999999997 328.2 C 259.99999999999994 351.59999999999997 264.7 370.09999999999997 271.9 383.9 L 78 383.9 L 78 383.9 Z M 0 0 M 352 336 C 352 345.9 349.6 360.3 342.9 371 C 337.2 380.1 330.4 384 320 384 C 285 384 288 288 288 288 L 96 288 L 96 96 L 96 95.9 L 96 95.10000000000001 C 96 90.60000000000001 97.6 78.30000000000001 104.7 71.20000000000002 C 106.5 69.40000000000002 111.9 64.00000000000001 128 64.00000000000001 L 356.5 64.00000000000001 C 354.4 72.80000000000001 352.8 81.80000000000001 352.2 89.9 C 352.2 90.5 352.09999999999997 91.10000000000001 352.09999999999997 91.7 C 352.09999999999997 92 352.09999999999997 92.3 352.09999999999997 92.60000000000001 C 352 94.8 352 96 352 96 L 352 160 L 352 336 Z"/></g></g></g><g transform="matrix(1,0,0,1,35,36)"><text fill="#000000" stroke="none" font-family="Open Sans" font-size="12pt" font-style="normal" font-weight="normal" text-decoration="normal" x="47.016666412353516" y="12" text-anchor="middle" dominant-baseline="alphabetic">   Not Sub     </text><text fill="#000000" stroke="none" font-family="Open Sans" font-size="12pt" font-style="normal" font-weight="normal" text-decoration="normal" x="47.016666412353516" y="27" text-anchor="middle" dominant-baseline="alphabetic">Process Task</text></g></g><g id="_070B417A-0016-43A0-9865-7DD4008FEAE1" bpmn2nodeid="_070B417A-0016-43A0-9865-7DD4008FEAE1" transform="matrix(1,0,0,1,1387,264)"><g><path fill="none" stroke="none"/></g><g transform="matrix(0.125,0,0,0.125,0,0)"><g transform="matrix(1,0,0,1,0,0)"><path fill="#bedee1" stroke="none" id="_070B417A-0016-43A0-9865-7DD4008FEAE1?shapeType=BACKGROUND" paint-order="stroke fill markers" d=" M 0 0 M 444 224 C 444 263.9 434.2 300.8 414.4 334.5 C 394.7 368.2 368 394.9 334.4 414.5 C 300.79999999999995 434.1 263.9 444 224 444 C 184.10000000000002 444 147.2 434.2 113.5 414.4 C 79.8 394.7 53.1 368 33.5 334.4 C 13.899999999999999 300.79999999999995 4 263.9 4 224 C 4 184.10000000000002 13.8 147.2 33.6 113.5 C 53.400000000000006 79.80000000000001 80.1 53.1 113.6 33.5 C 147.1 13.899999999999999 184.1 4 224 4 C 263.9 4 300.8 13.8 334.5 33.6 C 368.2 53.400000000000006 394.9 80.1 414.5 113.6 C 434.1 147.1 444 184.1 444 224 Z"/></g><g><g transform="matrix(1,0,0,1,0,0)"><g transform="matrix(1,0,0,1,0,0)"><path fill="#007a87" stroke="none" id="_070B417A-0016-43A0-9865-7DD4008FEAE1?shapeType=BORDER&amp;renderType=FILL" paint-order="stroke fill markers" d=" M 0 0 M 224 408 C 122.5 408 40 325.5 40 224 C 40 122.5 122.5 40 224 40 C 325.5 40 408 122.5 408 224 C 408 325.5 325.5 408 224 408 Z M 0 0 M 224 56 C 131.4 56 56 131.4 56 224 C 56 316.6 131.4 392 224 392 C 316.6 392 392 316.6 392 224 C 392 131.39999999999998 316.6 56 224 56 Z M 0 0 M 224 16 C 252.1 16 279.3 21.5 305 32.3 C 329.8 42.8 352 57.8 371.1 76.9 C 390.20000000000005 96.00000000000001 405.20000000000005 118.30000000000001 415.70000000000005 143 C 426.50000000000006 168.6 432.00000000000006 195.9 432.00000000000006 224 C 432.00000000000006 252.1 426.50000000000006 279.3 415.70000000000005 305 C 405.20000000000005 329.8 390.20000000000005 352 371.1 371.1 C 352 390.20000000000005 329.70000000000005 405.20000000000005 305 415.70000000000005 C 279.4 426.50000000000006 252.1 432.00000000000006 224 432.00000000000006 C 195.9 432.00000000000006 168.7 426.50000000000006 143 415.70000000000005 C 118.2 405.20000000000005 96 390.20000000000005 76.9 371.1 C 57.80000000000001 352 42.8 329.7 32.3 305 C 21.5 279.3 16 252.1 16 224 C 16 195.9 21.5 168.7 32.3 143 C 42.8 118.2 57.8 96 76.9 76.9 C 96.00000000000001 57.80000000000001 118.30000000000001 42.800000000000004 143 32.300000000000004 C 168.7 21.5 195.9 16 224 16 M 224 0 C 100.3 0 0 100.3 0 224 C 0 347.7 100.3 448 224 448 C 347.7 448 448 347.7 448 224 C 448 100.30000000000001 347.7 0 224 0 L 224 0 Z"/></g></g></g><g><g transform="matrix(1,0,0,1,0,0)"><g transform="matrix(1,0,0,1,0,0)"><path fill="#007a87" stroke="none" id="_070B417A-0016-43A0-9865-7DD4008FEAE1undefined" paint-order="stroke fill markers" d=" M 0 0 M 222.8 131.3 C 218.5 131.3 214.70000000000002 132.9 211.60000000000002 136.10000000000002 L 202.3 145.50000000000003 C 199.10000000000002 148.50000000000003 197.5 152.30000000000004 197.5 156.70000000000002 C 197.5 161.1 199.1 164.9 202.3 167.9 L 238.9 204.7 L 142.9 204.7 C 138.5 204.7 135 206.29999999999998 132.3 209.39999999999998 C 129.60000000000002 212.49999999999997 128.3 216.29999999999998 128.3 220.7 L 128.3 236.7 C 128.3 241.1 129.60000000000002 244.89999999999998 132.3 248 C 135 251.10000000000002 138.5 252.7 142.9 252.7 L 238.9 252.7 L 202.3 289.3 C 199.10000000000002 292.5 197.5 296.3 197.5 300.7 C 197.5 305.09999999999997 199.1 308.9 202.3 312.09999999999997 L 211.70000000000002 321.49999999999994 C 214.9 324.59999999999997 218.70000000000002 326.09999999999997 222.9 326.09999999999997 C 227.3 326.09999999999997 231 324.59999999999997 234.3 321.49999999999994 L 315.70000000000005 240.09999999999994 C 318.80000000000007 236.99999999999994 320.30000000000007 233.19999999999993 320.30000000000007 228.69999999999993 C 320.30000000000007 224.09999999999994 318.80000000000007 220.39999999999992 315.70000000000005 217.49999999999994 L 234.30000000000004 136.19999999999993 C 231.1 132.9 227.3 131.3 222.8 131.3 L 222.8 131.3 Z"/></g></g></g></g><g transform="matrix(1,0,0,1,-2.5666675567626953,61)"><text fill="#000000" stroke="none" font-family="Open Sans" font-size="12pt" font-style="normal" font-weight="normal" text-decoration="normal" x="30.566667556762695" y="12" text-anchor="middle" dominant-baseline="alphabetic">LinkLink</text></g></g><g id="_CFF35027-B260-412D-A6F2-1C8C039B19B2" bpmn2nodeid="_CFF35027-B260-412D-A6F2-1C8C039B19B2" transform="matrix(1,0,0,1,984,536)"><g><path fill="none" stroke="none"/></g><g transform="matrix(0.125,0,0,0.125,0,0)"><g transform="matrix(1,0,0,1,0,0)"><path fill="#fbefcf" stroke="none" id="_CFF35027-B260-412D-A6F2-1C8C039B19B2?shapeType=BACKGROUND" paint-order="stroke fill markers" d=" M 0 0 M 444 224 C 444 263.9 434.2 300.8 414.4 334.5 C 394.7 368.2 368 394.9 334.4 414.5 C 300.79999999999995 434.1 263.9 444 224 444 C 184.10000000000002 444 147.2 434.2 113.5 414.4 C 79.8 394.7 53.1 368 33.5 334.4 C 13.899999999999999 300.79999999999995 4 263.9 4 224 C 4 184.10000000000002 13.8 147.2 33.6 113.5 C 53.400000000000006 79.80000000000001 80.1 53.1 113.6 33.5 C 147.1 13.899999999999999 184.1 4 224 4 C 263.9 4 300.8 13.8 334.5 33.6 C 368.2 53.400000000000006 394.9 80.1 414.5 113.6 C 434.1 147.1 444 184.1 444 224 Z"/></g><g><g transform="matrix(1,0,0,1,0,0)"><g transform="matrix(1,0,0,1,0,0)"><path fill="#e5a000" stroke="none" id="_CFF35027-B260-412D-A6F2-1C8C039B19B2?shapeType=BORDER&amp;renderType=FILL" paint-order="stroke fill markers" d=" M 0 0 M 224 408 C 122.5 408 40 325.5 40 224 C 40 122.5 122.5 40 224 40 C 325.5 40 408 122.5 408 224 C 408 325.5 325.5 408 224 408 Z M 0 0 M 224 56 C 131.4 56 56 131.4 56 224 C 56 316.6 131.4 392 224 392 C 316.6 392 392 316.6 392 224 C 392 131.39999999999998 316.6 56 224 56 Z M 0 0 M 224 16 C 252.1 16 279.3 21.5 305 32.3 C 329.8 42.8 352 57.8 371.1 76.9 C 390.20000000000005 96.00000000000001 405.20000000000005 118.30000000000001 415.70000000000005 143 C 426.50000000000006 168.6 432.00000000000006 195.9 432.00000000000006 224 C 432.00000000000006 252.1 426.50000000000006 279.3 415.70000000000005 305 C 405.20000000000005 329.8 390.20000000000005 352 371.1 371.1 C 352 390.20000000000005 329.70000000000005 405.20000000000005 305 415.70000000000005 C 279.4 426.50000000000006 252.1 432.00000000000006 224 432.00000000000006 C 195.9 432.00000000000006 168.7 426.50000000000006 143 415.70000000000005 C 118.2 405.20000000000005 96 390.20000000000005 76.9 371.1 C 57.80000000000001 352 42.8 329.7 32.3 305 C 21.5 279.3 16 252.1 16 224 C 16 195.9 21.5 168.7 32.3 143 C 42.8 118.2 57.8 96 76.9 76.9 C 96.00000000000001 57.80000000000001 118.30000000000001 42.800000000000004 143 32.300000000000004 C 168.7 21.5 195.9 16 224 16 M 224 0 C 100.3 0 0 100.3 0 224 C 0 347.7 100.3 448 224 448 C 347.7 448 448 347.7 448 224 C 448 100.30000000000001 347.7 0 224 0 L 224 0 Z"/></g></g></g><g><g transform="matrix(1,0,0,1,0,0)"><g transform="matrix(1,0,0,1,0,0)"><path fill="#e5a000" stroke="none" id="_CFF35027-B260-412D-A6F2-1C8C039B19B2undefined" paint-order="stroke fill markers" d=" M 0 0 M 222.9 147.4 L 222.9 147.4 L 304.2 228.7 C 304.2 228.79999999999998 304.2 228.79999999999998 304.2 228.79999999999998 L 223.1 310 C 223 310 223 310.1 222.9 310.1 L 222.8 310.1 C 222.70000000000002 310.1 222.70000000000002 310 222.70000000000002 310 L 213.50000000000003 300.8 L 213.40000000000003 300.8 L 213.50000000000003 300.8 L 250.10000000000002 264.2 L 277.40000000000003 236.89999999999998 L 144.2 236.89999999999998 L 144.2 220.89999999999998 L 277.29999999999995 220.89999999999998 L 250.09999999999997 193.59999999999997 L 213.49999999999997 156.79999999999995 L 222.9 147.4 M 222.8 131.3 C 218.5 131.3 214.70000000000002 132.9 211.60000000000002 136.10000000000002 L 202.3 145.50000000000003 C 199.10000000000002 148.50000000000003 197.5 152.30000000000004 197.5 156.70000000000002 C 197.5 161.1 199.1 164.9 202.3 167.9 L 238.9 204.7 L 142.9 204.7 C 138.5 204.7 135 206.29999999999998 132.3 209.39999999999998 C 129.60000000000002 212.49999999999997 128.3 216.29999999999998 128.3 220.7 L 128.3 236.7 C 128.3 241.1 129.60000000000002 244.89999999999998 132.3 248 C 135 251.10000000000002 138.5 252.7 142.9 252.7 L 238.9 252.7 L 202.3 289.3 C 199.10000000000002 292.5 197.5 296.3 197.5 300.7 C 197.5 305.09999999999997 199.1 308.9 202.3 312.09999999999997 L 211.70000000000002 321.49999999999994 C 214.9 324.59999999999997 218.70000000000002 326.09999999999997 222.9 326.09999999999997 C 227.3 326.09999999999997 231 324.59999999999997 234.3 321.49999999999994 L 315.70000000000005 240.09999999999994 C 318.80000000000007 236.99999999999994 320.30000000000007 233.19999999999993 320.30000000000007 228.69999999999993 C 320.30000000000007 224.09999999999994 318.80000000000007 220.39999999999992 315.70000000000005 217.49999999999994 L 234.30000000000004 136.19999999999993 C 231.1 132.9 227.3 131.3 222.8 131.3 L 222.8 131.3 Z"/></g></g></g></g><g transform="matrix(1,0,0,1,-2.5666675567626953,61)"><text fill="#000000" stroke="none" font-family="Open Sans" font-size="12pt" font-style="normal" font-weight="normal" text-decoration="normal" x="30.566667556762695" y="12" text-anchor="middle" dominant-baseline="alphabetic">LinkLink</text></g></g><g id="_2614EA3A-C62E-4F2A-8EAB-1B19598E3041" bpmn2nodeid="_2614EA3A-C62E-4F2A-8EAB-1B19598E3041" transform="matrix(1,0,0,1,422,165)"><g><path fill="none" stroke="none"/></g><g transform="matrix(1,0,0,1,0,0)"><path fill="#ffffff" stroke="none" id="_2614EA3A-C62E-4F2A-8EAB-1B19598E3041?shapeType=BACKGROUND" paint-order="stroke fill markers" d=" M 2 0 L 651 0 L 651 0 A 2 2 0 0 1 653 2 L 653 251 L 653 251 A 2 2 0 0 1 651 253 L 2 253 L 2 253 A 2 2 0 0 1 0 251 L 0 2 L 0 2.0000000000000004 A 2 2 0 0 1 1.9999999999999996 0 Z"/></g><g transform="matrix(1,0,0,1,0,0)"><path fill="none" stroke="rgb(57,63,68)" id="_2614EA3A-C62E-4F2A-8EAB-1B19598E3041?shapeType=BORDER&amp;renderType=STROKE" paint-order="fill stroke markers" d=" M 2 0 L 651 0 L 651 0 A 2 2 0 0 1 653 2 L 653 251 L 653 251 A 2 2 0 0 1 651 253 L 2 253 L 2 253 A 2 2 0 0 1 0 251 L 0 2 L 0 2.0000000000000004 A 2 2 0 0 1 1.9999999999999996 0 Z" stroke-miterlimit="10" stroke-width="1.5" stroke-dasharray=""/></g><g transform="matrix(1,0,0,1,280.95000076293945,0)"><text fill="#000000" stroke="none" font-family="Open Sans" font-size="12pt" font-style="normal" font-weight="normal" text-decoration="normal" x="45.54999923706055" y="12" text-anchor="middle" dominant-baseline="alphabetic">Sub-process</text></g><g id="_8D37DB84-15CF-4386-877B-454464406AB6" bpmn2nodeid="_8D37DB84-15CF-4386-877B-454464406AB6" transform="matrix(1,0,0,1,352,76)"><g><path fill="none" stroke="none"/></g><g transform="matrix(1,0,0,1,0,0)"><path fill="#ffffff" stroke="none" id="_8D37DB84-15CF-4386-877B-454464406AB6?shapeType=BACKGROUND" paint-order="stroke fill markers" d=" M 2 0 L 152 0 L 152 0 A 2 2 0 0 1 154 2 L 154 100 L 154 100 A 2 2 0 0 1 152 102 L 2 102 L 2 102 A 2 2 0 0 1 0 100 L 0 2 L 0 2.0000000000000004 A 2 2 0 0 1 1.9999999999999996 0 Z"/></g><g transform="matrix(1,0,0,1,0,0)"><path fill="none" stroke="#000000" id="_8D37DB84-15CF-4386-877B-454464406AB6?shapeType=BORDER&amp;renderType=STROKE" paint-order="fill stroke markers" d=" M 2 0 L 152 0 L 152 0 A 2 2 0 0 1 154 2 L 154 100 L 154 100 A 2 2 0 0 1 152 102 L 2 102 L 2 102 A 2 2 0 0 1 0 100 L 0 2 L 0 2.0000000000000004 A 2 2 0 0 1 1.9999999999999996 0 Z" stroke-miterlimit="10" stroke-width="1.5" stroke-dasharray=""/></g><g><g transform="matrix(0.06,0,0,0.06,9.4,9.4)"><g transform="matrix(1,0,0,1,0,0)"><path fill="#393f44" stroke="none" id="_8D37DB84-15CF-4386-877B-454464406AB6undefined" paint-order="stroke fill markers" d=" M 0 0 M 197.3 130.2 C 194.4 127.29999999999998 189.60000000000002 127.29999999999998 186.70000000000002 130.2 L 130.20000000000002 186.7 C 127.30000000000001 189.6 127.30000000000001 194.39999999999998 130.20000000000002 197.29999999999998 L 186.70000000000002 253.79999999999998 C 188.10000000000002 255.29999999999998 190.10000000000002 255.99999999999997 192.00000000000003 255.99999999999997 C 193.90000000000003 255.99999999999997 195.90000000000003 255.29999999999998 197.30000000000004 253.69999999999996 C 200.20000000000005 250.79999999999995 200.20000000000005 245.99999999999997 197.30000000000004 243.09999999999997 L 146.2 192 L 197.29999999999998 140.8 C 200.2 137.9 200.2 133.1 197.3 130.2 Z"/></g><g transform="matrix(1,0,0,1,0,0)"><path fill="#393f44" stroke="none" id="_8D37DB84-15CF-4386-877B-454464406AB6undefined" paint-order="stroke fill markers" d=" M 0 0 M 261.3 130.2 C 258.40000000000003 127.29999999999998 253.60000000000002 127.29999999999998 250.70000000000002 130.2 C 247.8 133.1 247.8 137.89999999999998 250.70000000000002 140.79999999999998 L 301.8 191.89999999999998 L 250.7 243 C 247.79999999999998 245.9 247.79999999999998 250.7 250.7 253.6 C 252.1 255.29999999999998 254.1 256 256 256 C 257.9 256 259.9 255.3 261.3 253.8 L 317.8 197.3 C 320.7 194.4 320.7 189.60000000000002 317.8 186.70000000000002 L 261.3 130.2 Z"/></g><g transform="matrix(1,0,0,1,0,0)"><path fill="#393f44" stroke="none" id="_8D37DB84-15CF-4386-877B-454464406AB6undefined" paint-order="stroke fill markers" d=" M 0 0 M 400 32 C 400 32 152.8 32 128 32 C 62 32 64 96 64 96 L 64 288 L 1 288 C 1 288 -4 416 78 416 L 320 416 C 368 416 384 368 384 336 C 384 314.2 384 224.4 384 160 L 448 160 L 448 96 C 448 96 449 32 400 32 Z M 0 0 M 78 383.9 C 68.5 383.9 61.6 381.09999999999997 55.5 374.9 C 43.4 362.4 37.5 339.59999999999997 34.9 320 L 256.9 320 C 257.09999999999997 322.7 257.29999999999995 325.4 257.59999999999997 328.2 C 259.99999999999994 351.59999999999997 264.7 370.09999999999997 271.9 383.9 L 78 383.9 L 78 383.9 Z M 0 0 M 352 336 C 352 345.9 349.6 360.3 342.9 371 C 337.2 380.1 330.4 384 320 384 C 285 384 288 288 288 288 L 96 288 L 96 96 L 96 95.9 L 96 95.10000000000001 C 96 90.60000000000001 97.6 78.30000000000001 104.7 71.20000000000002 C 106.5 69.40000000000002 111.9 64.00000000000001 128 64.00000000000001 L 356.5 64.00000000000001 C 354.4 72.80000000000001 352.8 81.80000000000001 352.2 89.9 C 352.2 90.5 352.09999999999997 91.10000000000001 352.09999999999997 91.7 C 352.09999999999997 92 352.09999999999997 92.3 352.09999999999997 92.60000000000001 C 352 94.8 352 96 352 96 L 352 160 L 352 336 Z"/></g></g></g><g transform="matrix(1,0,0,1,35,36)"><text fill="#000000" stroke="none" font-family="Open Sans" font-size="12pt" font-style="normal" font-weight="normal" text-decoration="normal" x="47.04166793823242" y="12" text-anchor="middle" dominant-baseline="alphabetic">Sub Process </text><text fill="#000000" stroke="none" font-family="Open Sans" font-size="12pt" font-style="normal" font-weight="normal" text-decoration="normal" x="47.04166793823242" y="27" text-anchor="middle" dominant-baseline="alphabetic">       Task        </text></g></g><g id="_7F998090-CE86-4788-A5C8-902B23FC63C1" bpmn2nodeid="_7F998090-CE86-4788-A5C8-902B23FC63C1" transform="matrix(1,0,0,1,239,99)"><g><path fill="none" stroke="none"/></g><g transform="matrix(0.125,0,0,0.125,0,0)"><g transform="matrix(1,0,0,1,0,0)"><path fill="#fbefcf" stroke="none" id="_7F998090-CE86-4788-A5C8-902B23FC63C1?shapeType=BACKGROUND" paint-order="stroke fill markers" d=" M 0 0 M 444 224 C 444 263.9 434.2 300.8 414.4 334.5 C 394.7 368.2 368 394.9 334.4 414.5 C 300.79999999999995 434.1 263.9 444 224 444 C 184.10000000000002 444 147.2 434.2 113.5 414.4 C 79.8 394.7 53.1 368 33.5 334.4 C 13.899999999999999 300.79999999999995 4 263.9 4 224 C 4 184.10000000000002 13.8 147.2 33.6 113.5 C 53.400000000000006 79.80000000000001 80.1 53.1 113.6 33.5 C 147.1 13.899999999999999 184.1 4 224 4 C 263.9 4 300.8 13.8 334.5 33.6 C 368.2 53.400000000000006 394.9 80.1 414.5 113.6 C 434.1 147.1 444 184.1 444 224 Z"/></g><g><g transform="matrix(1,0,0,1,0,0)"><g transform="matrix(1,0,0,1,0,0)"><path fill="#e5a000" stroke="none" id="_7F998090-CE86-4788-A5C8-902B23FC63C1?shapeType=BORDER&amp;renderType=FILL" paint-order="stroke fill markers" d=" M 0 0 M 224 408 C 122.5 408 40 325.5 40 224 C 40 122.5 122.5 40 224 40 C 325.5 40 408 122.5 408 224 C 408 325.5 325.5 408 224 408 Z M 0 0 M 224 56 C 131.4 56 56 131.4 56 224 C 56 316.6 131.4 392 224 392 C 316.6 392 392 316.6 392 224 C 392 131.39999999999998 316.6 56 224 56 Z M 0 0 M 224 16 C 252.1 16 279.3 21.5 305 32.3 C 329.8 42.8 352 57.8 371.1 76.9 C 390.20000000000005 96.00000000000001 405.20000000000005 118.30000000000001 415.70000000000005 143 C 426.50000000000006 168.6 432.00000000000006 195.9 432.00000000000006 224 C 432.00000000000006 252.1 426.50000000000006 279.3 415.70000000000005 305 C 405.20000000000005 329.8 390.20000000000005 352 371.1 371.1 C 352 390.20000000000005 329.70000000000005 405.20000000000005 305 415.70000000000005 C 279.4 426.50000000000006 252.1 432.00000000000006 224 432.00000000000006 C 195.9 432.00000000000006 168.7 426.50000000000006 143 415.70000000000005 C 118.2 405.20000000000005 96 390.20000000000005 76.9 371.1 C 57.80000000000001 352 42.8 329.7 32.3 305 C 21.5 279.3 16 252.1 16 224 C 16 195.9 21.5 168.7 32.3 143 C 42.8 118.2 57.8 96 76.9 76.9 C 96.00000000000001 57.80000000000001 118.30000000000001 42.800000000000004 143 32.300000000000004 C 168.7 21.5 195.9 16 224 16 M 224 0 C 100.3 0 0 100.3 0 224 C 0 347.7 100.3 448 224 448 C 347.7 448 448 347.7 448 224 C 448 100.30000000000001 347.7 0 224 0 L 224 0 Z"/></g></g></g><g><g transform="matrix(1,0,0,1,0,0)"><g transform="matrix(1,0,0,1,0,0)"><path fill="#e5a000" stroke="none" id="_7F998090-CE86-4788-A5C8-902B23FC63C1undefined" paint-order="stroke fill markers" d=" M 0 0 M 222.9 147.4 L 222.9 147.4 L 304.2 228.7 C 304.2 228.79999999999998 304.2 228.79999999999998 304.2 228.79999999999998 L 223.1 310 C 223 310 223 310.1 222.9 310.1 L 222.8 310.1 C 222.70000000000002 310.1 222.70000000000002 310 222.70000000000002 310 L 213.50000000000003 300.8 L 213.40000000000003 300.8 L 213.50000000000003 300.8 L 250.10000000000002 264.2 L 277.40000000000003 236.89999999999998 L 144.2 236.89999999999998 L 144.2 220.89999999999998 L 277.29999999999995 220.89999999999998 L 250.09999999999997 193.59999999999997 L 213.49999999999997 156.79999999999995 L 222.9 147.4 M 222.8 131.3 C 218.5 131.3 214.70000000000002 132.9 211.60000000000002 136.10000000000002 L 202.3 145.50000000000003 C 199.10000000000002 148.50000000000003 197.5 152.30000000000004 197.5 156.70000000000002 C 197.5 161.1 199.1 164.9 202.3 167.9 L 238.9 204.7 L 142.9 204.7 C 138.5 204.7 135 206.29999999999998 132.3 209.39999999999998 C 129.60000000000002 212.49999999999997 128.3 216.29999999999998 128.3 220.7 L 128.3 236.7 C 128.3 241.1 129.60000000000002 244.89999999999998 132.3 248 C 135 251.10000000000002 138.5 252.7 142.9 252.7 L 238.9 252.7 L 202.3 289.3 C 199.10000000000002 292.5 197.5 296.3 197.5 300.7 C 197.5 305.09999999999997 199.1 308.9 202.3 312.09999999999997 L 211.70000000000002 321.49999999999994 C 214.9 324.59999999999997 218.70000000000002 326.09999999999997 222.9 326.09999999999997 C 227.3 326.09999999999997 231 324.59999999999997 234.3 321.49999999999994 L 315.70000000000005 240.09999999999994 C 318.80000000000007 236.99999999999994 320.30000000000007 233.19999999999993 320.30000000000007 228.69999999999993 C 320.30000000000007 224.09999999999994 318.80000000000007 220.39999999999992 315.70000000000005 217.49999999999994 L 234.30000000000004 136.19999999999993 C 231.1 132.9 227.3 131.3 222.8 131.3 L 222.8 131.3 Z"/></g></g></g></g><g transform="matrix(1,0,0,1,-2.5666675567626953,61)"><text fill="#000000" stroke="none" font-family="Open Sans" font-size="12pt" font-style="normal" font-weight="normal" text-decoration="normal" x="30.566667556762695" y="12" text-anchor="middle" dominant-baseline="alphabetic">LinkLink</text></g></g><g id="_99E166F4-FC09-495A-8B46-81226ED0D1AA" bpmn2nodeid="_99E166F4-FC09-495A-8B46-81226ED0D1AA" transform="matrix(1,0,0,1,562,99)"><g><path fill="none" stroke="none"/></g><g transform="matrix(0.125,0,0,0.125,0,0)"><g transform="matrix(1,0,0,1,0,0)"><path fill="#fce7e7" stroke="none" id="_99E166F4-FC09-495A-8B46-81226ED0D1AA?shapeType=BACKGROUND" paint-order="stroke fill markers" d=" M 0 0 M 444 224 C 444 263.9 434.2 300.8 414.4 334.5 C 394.7 368.2 368 394.9 334.4 414.5 C 300.79999999999995 434.1 263.9 444 224 444 C 184.10000000000002 444 147.2 434.2 113.5 414.4 C 79.8 394.7 53.1 368 33.5 334.4 C 13.899999999999999 300.79999999999995 4 263.9 4 224 C 4 184.10000000000002 13.8 147.2 33.6 113.5 C 53.400000000000006 79.80000000000001 80.1 53.1 113.6 33.5 C 147.1 13.899999999999999 184.1 4 224 4 C 263.9 4 300.8 13.8 334.5 33.6 C 368.2 53.400000000000006 394.9 80.1 414.5 113.6 C 434.1 147.1 444 184.1 444 224 Z"/></g><g><g transform="matrix(1,0,0,1,0,0)"><g transform="matrix(1,0,0,1,0,0)"><path fill="#a30000" stroke="none" id="_99E166F4-FC09-495A-8B46-81226ED0D1AA?shapeType=BORDER&amp;renderType=FILL" paint-order="stroke fill markers" d=" M 0 0 M 224 0 C 100.3 0 0 100.3 0 224 C 0 347.7 100.3 448 224 448 C 347.7 448 448 347.7 448 224 C 448 100.30000000000001 347.7 0 224 0 Z M 0 0 M 224 400 C 126.8 400 48 321.2 48 224 C 48 126.80000000000001 126.8 48 224 48 C 321.2 48 400 126.8 400 224 C 400 321.2 321.2 400 224 400 Z"/></g></g></g></g><g transform="matrix(1,0,0,1,28,61)"/></g><g id="_A94E61A7-4266-4A7F-8ADF-FD015687E972" bpmn2nodeid="_A94E61A7-4266-4A7F-8ADF-FD015687E972" transform="matrix(1,0,0,1,126,99)"><g><path fill="none" stroke="none"/></g><g transform="matrix(0.125,0,0,0.125,0,0)"><g transform="matrix(1,0,0,1,0,0)"><path fill="#bedee1" stroke="none" id="_A94E61A7-4266-4A7F-8ADF-FD015687E972?shapeType=BACKGROUND" paint-order="stroke fill markers" d=" M 0 0 M 444 224 C 444 263.9 434.2 300.8 414.4 334.5 C 394.7 368.2 368 394.9 334.4 414.5 C 300.79999999999995 434.1 263.9 444 224 444 C 184.10000000000002 444 147.2 434.2 113.5 414.4 C 79.8 394.7 53.1 368 33.5 334.4 C 13.899999999999999 300.79999999999995 4 263.9 4 224 C 4 184.10000000000002 13.8 147.2 33.6 113.5 C 53.400000000000006 79.80000000000001 80.1 53.1 113.6 33.5 C 147.1 13.899999999999999 184.1 4 224 4 C 263.9 4 300.8 13.8 334.5 33.6 C 368.2 53.400000000000006 394.9 80.1 414.5 113.6 C 434.1 147.1 444 184.1 444 224 Z"/></g><g><g transform="matrix(1,0,0,1,0,0)"><g transform="matrix(1,0,0,1,0,0)"><path fill="rgb(0,122,135)" stroke="none" id="_A94E61A7-4266-4A7F-8ADF-FD015687E972?shapeType=BORDER&amp;renderType=FILL" paint-order="stroke fill markers" d=" M 0 0 M 224 408 C 122.5 408 40 325.5 40 224 C 40 122.5 122.5 40 224 40 C 325.5 40 408 122.5 408 224 C 408 325.5 325.5 408 224 408 Z M 0 0 M 224 56 C 131.4 56 56 131.4 56 224 C 56 316.6 131.4 392 224 392 C 316.6 392 392 316.6 392 224 C 392 131.39999999999998 316.6 56 224 56 Z M 0 0 M 224 16 C 252.1 16 279.3 21.5 305 32.3 C 329.8 42.8 352 57.8 371.1 76.9 C 390.20000000000005 96.00000000000001 405.20000000000005 118.30000000000001 415.70000000000005 143 C 426.50000000000006 168.6 432.00000000000006 195.9 432.00000000000006 224 C 432.00000000000006 252.1 426.50000000000006 279.3 415.70000000000005 305 C 405.20000000000005 329.8 390.20000000000005 352 371.1 371.1 C 352 390.20000000000005 329.70000000000005 405.20000000000005 305 415.70000000000005 C 279.4 426.50000000000006 252.1 432.00000000000006 224 432.00000000000006 C 195.9 432.00000000000006 168.7 426.50000000000006 143 415.70000000000005 C 118.2 405.20000000000005 96 390.20000000000005 76.9 371.1 C 57.80000000000001 352 42.8 329.7 32.3 305 C 21.5 279.3 16 252.1 16 224 C 16 195.9 21.5 168.7 32.3 143 C 42.8 118.2 57.8 96 76.9 76.9 C 96.00000000000001 57.80000000000001 118.30000000000001 42.800000000000004 143 32.300000000000004 C 168.7 21.5 195.9 16 224 16 M 224 0 C 100.3 0 0 100.3 0 224 C 0 347.7 100.3 448 224 448 C 347.7 448 448 347.7 448 224 C 448 100.30000000000001 347.7 0 224 0 L 224 0 Z"/></g></g></g><g><g transform="matrix(1,0,0,1,0,0)"><g transform="matrix(1,0,0,1,0,0)"><path fill="#007a87" stroke="none" id="_A94E61A7-4266-4A7F-8ADF-FD015687E972undefined" paint-order="stroke fill markers" d=" M 0 0 M 222.8 131.3 C 218.5 131.3 214.70000000000002 132.9 211.60000000000002 136.10000000000002 L 202.3 145.50000000000003 C 199.10000000000002 148.50000000000003 197.5 152.30000000000004 197.5 156.70000000000002 C 197.5 161.1 199.1 164.9 202.3 167.9 L 238.9 204.7 L 142.9 204.7 C 138.5 204.7 135 206.29999999999998 132.3 209.39999999999998 C 129.60000000000002 212.49999999999997 128.3 216.29999999999998 128.3 220.7 L 128.3 236.7 C 128.3 241.1 129.60000000000002 244.89999999999998 132.3 248 C 135 251.10000000000002 138.5 252.7 142.9 252.7 L 238.9 252.7 L 202.3 289.3 C 199.10000000000002 292.5 197.5 296.3 197.5 300.7 C 197.5 305.09999999999997 199.1 308.9 202.3 312.09999999999997 L 211.70000000000002 321.49999999999994 C 214.9 324.59999999999997 218.70000000000002 326.09999999999997 222.9 326.09999999999997 C 227.3 326.09999999999997 231 324.59999999999997 234.3 321.49999999999994 L 315.70000000000005 240.09999999999994 C 318.80000000000007 236.99999999999994 320.30000000000007 233.19999999999993 320.30000000000007 228.69999999999993 C 320.30000000000007 224.09999999999994 318.80000000000007 220.39999999999992 315.70000000000005 217.49999999999994 L 234.30000000000004 136.19999999999993 C 231.1 132.9 227.3 131.3 222.8 131.3 L 222.8 131.3 Z"/></g></g></g></g><g transform="matrix(1,0,0,1,-2.5666675567626953,61)"><text fill="#000000" stroke="none" font-family="Open Sans" font-size="12pt" font-style="normal" font-weight="normal" text-decoration="normal" x="30.566667556762695" y="12" text-anchor="middle" dominant-baseline="alphabetic">LinkLink</text></g></g><g id="_C9C32245-7C1F-4402-8856-CAEA1F9270C2" bpmn2nodeid="_C9C32245-7C1F-4402-8856-CAEA1F9270C2" transform="matrix(1,0,0,1,13,99)"><g><path fill="none" stroke="none"/></g><g transform="matrix(0.125,0,0,0.125,0,0)"><g transform="matrix(1,0,0,1,0,0)"><path fill="#e8fae6" stroke="none" id="_C9C32245-7C1F-4402-8856-CAEA1F9270C2?shapeType=BACKGROUND" paint-order="stroke fill markers" d=" M 0 0 M 444 224 C 444 263.9 434.2 300.8 414.4 334.5 C 394.7 368.2 368 394.9 334.4 414.5 C 300.79999999999995 434.1 263.9 444 224 444 C 184.10000000000002 444 147.2 434.2 113.5 414.4 C 79.8 394.7 53.1 368 33.5 334.4 C 13.899999999999999 300.79999999999995 4 263.9 4 224 C 4 184.10000000000002 13.8 147.2 33.6 113.5 C 53.400000000000006 79.80000000000001 80.1 53.1 113.6 33.5 C 147.1 13.899999999999999 184.1 4 224 4 C 263.9 4 300.8 13.8 334.5 33.6 C 368.2 53.400000000000006 394.9 80.1 414.5 113.6 C 434.1 147.1 444 184.1 444 224 Z"/></g><g><g transform="matrix(1,0,0,1,0,0)"><g transform="matrix(1,0,0,1,0,0)"><path fill="rgb(74,162,65)" stroke="none" id="_C9C32245-7C1F-4402-8856-CAEA1F9270C2?shapeType=BORDER&amp;renderType=FILL" paint-order="stroke fill markers" d=" M 0 0 M 224 0 C 100.3 0 0 100.3 0 224 C 0 347.7 100.3 448 224 448 C 347.7 448 448 347.7 448 224 C 448 100.30000000000001 347.7 0 224 0 Z M 0 0 M 224 432 C 109.1 432 16 338.9 16 224 C 16 109.10000000000002 109.1 16 224 16 C 338.9 16 432 109.1 432 224 C 432 338.9 338.9 432 224 432 Z"/></g></g></g></g><g transform="matrix(1,0,0,1,28,61)"/></g></g><g id="_4F162848-3483-462E-808E-731805066BA1" bpmn2nodeid="_4F162848-3483-462E-808E-731805066BA1" transform="matrix(1,0,0,1,1387,536)"><g><path fill="none" stroke="none"/></g><g transform="matrix(0.125,0,0,0.125,0,0)"><g transform="matrix(1,0,0,1,0,0)"><path fill="#fce7e7" stroke="none" id="_4F162848-3483-462E-808E-731805066BA1?shapeType=BACKGROUND" paint-order="stroke fill markers" d=" M 0 0 M 444 224 C 444 263.9 434.2 300.8 414.4 334.5 C 394.7 368.2 368 394.9 334.4 414.5 C 300.79999999999995 434.1 263.9 444 224 444 C 184.10000000000002 444 147.2 434.2 113.5 414.4 C 79.8 394.7 53.1 368 33.5 334.4 C 13.899999999999999 300.79999999999995 4 263.9 4 224 C 4 184.10000000000002 13.8 147.2 33.6 113.5 C 53.400000000000006 79.80000000000001 80.1 53.1 113.6 33.5 C 147.1 13.899999999999999 184.1 4 224 4 C 263.9 4 300.8 13.8 334.5 33.6 C 368.2 53.400000000000006 394.9 80.1 414.5 113.6 C 434.1 147.1 444 184.1 444 224 Z"/></g><g><g transform="matrix(1,0,0,1,0,0)"><g transform="matrix(1,0,0,1,0,0)"><path fill="#a30000" stroke="none" id="_4F162848-3483-462E-808E-731805066BA1?shapeType=BORDER&amp;renderType=FILL" paint-order="stroke fill markers" d=" M 0 0 M 224 0 C 100.3 0 0 100.3 0 224 C 0 347.7 100.3 448 224 448 C 347.7 448 448 347.7 448 224 C 448 100.30000000000001 347.7 0 224 0 Z M 0 0 M 224 400 C 126.8 400 48 321.2 48 224 C 48 126.80000000000001 126.8 48 224 48 C 321.2 48 400 126.8 400 224 C 400 321.2 321.2 400 224 400 Z"/></g></g></g></g><g transform="matrix(1,0,0,1,28,61)"/></g><g id="_8299F635-5B73-422C-8DB1-D58B29C3A735" bpmn2nodeid="_8299F635-5B73-422C-8DB1-D58B29C3A735" transform="matrix(1,0,0,1,1153,241)"><g><path fill="none" stroke="none"/></g><g transform="matrix(1,0,0,1,0,0)"><path fill="#ffffff" stroke="none" id="_8299F635-5B73-422C-8DB1-D58B29C3A735?shapeType=BACKGROUND" paint-order="stroke fill markers" d=" M 2 0 L 152 0 L 152 0 A 2 2 0 0 1 154 2 L 154 100 L 154 100 A 2 2 0 0 1 152 102 L 2 102 L 2 102 A 2 2 0 0 1 0 100 L 0 2 L 0 2.0000000000000004 A 2 2 0 0 1 1.9999999999999996 0 Z"/></g><g transform="matrix(1,0,0,1,0,0)"><path fill="none" stroke="#000000" id="_8299F635-5B73-422C-8DB1-D58B29C3A735?shapeType=BORDER&amp;renderType=STROKE" paint-order="fill stroke markers" d=" M 2 0 L 152 0 L 152 0 A 2 2 0 0 1 154 2 L 154 100 L 154 100 A 2 2 0 0 1 152 102 L 2 102 L 2 102 A 2 2 0 0 1 0 100 L 0 2 L 0 2.0000000000000004 A 2 2 0 0 1 1.9999999999999996 0 Z" stroke-miterlimit="10" stroke-width="1.5" stroke-dasharray=""/></g><g><g transform="matrix(0.06,0,0,0.06,9.4,9.4)"><g transform="matrix(1,0,0,1,0,0)"><path fill="#393f44" stroke="none" id="_8299F635-5B73-422C-8DB1-D58B29C3A735undefined" paint-order="stroke fill markers" d=" M 0 0 M 197.3 130.2 C 194.4 127.29999999999998 189.60000000000002 127.29999999999998 186.70000000000002 130.2 L 130.20000000000002 186.7 C 127.30000000000001 189.6 127.30000000000001 194.39999999999998 130.20000000000002 197.29999999999998 L 186.70000000000002 253.79999999999998 C 188.10000000000002 255.29999999999998 190.10000000000002 255.99999999999997 192.00000000000003 255.99999999999997 C 193.90000000000003 255.99999999999997 195.90000000000003 255.29999999999998 197.30000000000004 253.69999999999996 C 200.20000000000005 250.79999999999995 200.20000000000005 245.99999999999997 197.30000000000004 243.09999999999997 L 146.2 192 L 197.29999999999998 140.8 C 200.2 137.9 200.2 133.1 197.3 130.2 Z"/></g><g transform="matrix(1,0,0,1,0,0)"><path fill="#393f44" stroke="none" id="_8299F635-5B73-422C-8DB1-D58B29C3A735undefined" paint-order="stroke fill markers" d=" M 0 0 M 261.3 130.2 C 258.40000000000003 127.29999999999998 253.60000000000002 127.29999999999998 250.70000000000002 130.2 C 247.8 133.1 247.8 137.89999999999998 250.70000000000002 140.79999999999998 L 301.8 191.89999999999998 L 250.7 243 C 247.79999999999998 245.9 247.79999999999998 250.7 250.7 253.6 C 252.1 255.29999999999998 254.1 256 256 256 C 257.9 256 259.9 255.3 261.3 253.8 L 317.8 197.3 C 320.7 194.4 320.7 189.60000000000002 317.8 186.70000000000002 L 261.3 130.2 Z"/></g><g transform="matrix(1,0,0,1,0,0)"><path fill="#393f44" stroke="none" id="_8299F635-5B73-422C-8DB1-D58B29C3A735undefined" paint-order="stroke fill markers" d=" M 0 0 M 400 32 C 400 32 152.8 32 128 32 C 62 32 64 96 64 96 L 64 288 L 1 288 C 1 288 -4 416 78 416 L 320 416 C 368 416 384 368 384 336 C 384 314.2 384 224.4 384 160 L 448 160 L 448 96 C 448 96 449 32 400 32 Z M 0 0 M 78 383.9 C 68.5 383.9 61.6 381.09999999999997 55.5 374.9 C 43.4 362.4 37.5 339.59999999999997 34.9 320 L 256.9 320 C 257.09999999999997 322.7 257.29999999999995 325.4 257.59999999999997 328.2 C 259.99999999999994 351.59999999999997 264.7 370.09999999999997 271.9 383.9 L 78 383.9 L 78 383.9 Z M 0 0 M 352 336 C 352 345.9 349.6 360.3 342.9 371 C 337.2 380.1 330.4 384 320 384 C 285 384 288 288 288 288 L 96 288 L 96 96 L 96 95.9 L 96 95.10000000000001 C 96 90.60000000000001 97.6 78.30000000000001 104.7 71.20000000000002 C 106.5 69.40000000000002 111.9 64.00000000000001 128 64.00000000000001 L 356.5 64.00000000000001 C 354.4 72.80000000000001 352.8 81.80000000000001 352.2 89.9 C 352.2 90.5 352.09999999999997 91.10000000000001 352.09999999999997 91.7 C 352.09999999999997 92 352.09999999999997 92.3 352.09999999999997 92.60000000000001 C 352 94.8 352 96 352 96 L 352 160 L 352 336 Z"/></g></g></g><g transform="matrix(1,0,0,1,35,36)"><text fill="#000000" stroke="none" font-family="Open Sans" font-size="12pt" font-style="normal" font-weight="normal" text-decoration="normal" x="47.016666412353516" y="12" text-anchor="middle" dominant-baseline="alphabetic">  After Sub    </text><text fill="#000000" stroke="none" font-family="Open Sans" font-size="12pt" font-style="normal" font-weight="normal" text-decoration="normal" x="47.016666412353516" y="27" text-anchor="middle" dominant-baseline="alphabetic">Process Task</text></g></g><g id="_B7DED814-78B4-4EBC-B000-807234079444" bpmn2nodeid="_B7DED814-78B4-4EBC-B000-807234079444"><g><path fill="none" stroke="#000000" paint-order="fill stroke markers" d=" M 717 292 L 759 292" stroke-miterlimit="10" stroke-dasharray=""/></g><g transform="matrix(1,0,0,1,717,292)"/><g transform="matrix(6.123233995736766e-17,1,-1,6.123233995736766e-17,774,287)"><path fill="#000000" stroke="#000000" paint-order="fill stroke markers" d=" M 10 15 L 0 15 L 5 0 Z" stroke-miterlimit="10" stroke-dasharray=""/></g><g transform="matrix(1,0,0,1,717,282)"/></g><g id="_A5C0EF2C-09BF-41ED-9E87-3EA43D653477" bpmn2nodeid="_A5C0EF2C-09BF-41ED-9E87-3EA43D653477"><g><path fill="none" stroke="#000000" paint-order="fill stroke markers" d=" M 928 292 L 969 292" stroke-miterlimit="10" stroke-dasharray=""/></g><g transform="matrix(1,0,0,1,928,292)"/><g transform="matrix(6.123233995736766e-17,1,-1,6.123233995736766e-17,984,287)"><path fill="#000000" stroke="#000000" paint-order="fill stroke markers" d=" M 10 15 L 0 15 L 5 0 Z" stroke-miterlimit="10" stroke-dasharray=""/></g><g transform="matrix(1,0,0,1,928,282)"/></g><g id="_096D7360-EC12-4276-8D95-911F1F7B71D5" bpmn2nodeid="_096D7360-EC12-4276-8D95-911F1F7B71D5"><g><path fill="none" stroke="#000000" paint-order="fill stroke markers" d=" M 1040 564 L 1138 564" stroke-miterlimit="10" stroke-dasharray=""/></g><g transform="matrix(1,0,0,1,1040,564)"/><g transform="matrix(6.123233995736766e-17,1,-1,6.123233995736766e-17,1153,559)"><path fill="#000000" stroke="#000000" paint-order="fill stroke markers" d=" M 10 15 L 0 15 L 5 0 Z" stroke-miterlimit="10" stroke-dasharray=""/></g><g transform="matrix(1,0,0,1,1040,554)"/></g><g id="_508852C7-6994-493C-B44B-ED5243031800" bpmn2nodeid="_508852C7-6994-493C-B44B-ED5243031800"><g><path fill="none" stroke="#000000" paint-order="fill stroke markers" d=" M 1307 564 L 1372 564" stroke-miterlimit="10" stroke-dasharray=""/></g><g transform="matrix(1,0,0,1,1307,564)"/><g transform="matrix(6.123233995736766e-17,1,-1,6.123233995736766e-17,1387,559)"><path fill="#000000" stroke="#000000" paint-order="fill stroke markers" d=" M 10 15 L 0 15 L 5 0 Z" stroke-miterlimit="10" stroke-dasharray=""/></g><g transform="matrix(1,0,0,1,1307,554)"/></g><g id="_2F90C1FD-D21B-4632-8434-933388B010E8" bpmn2nodeid="_2F90C1FD-D21B-4632-8434-933388B010E8"><g><path fill="none" stroke="#000000" paint-order="fill stroke markers" d=" M 1075 291.5 L 1138.0003081759069 291.90384812933274" stroke-miterlimit="10" stroke-dasharray=""/></g><g transform="matrix(1,0,0,1,1075,291.5)"/><g transform="matrix(-0.0064101247111503406,0.999979454939544,-0.999979454939544,-0.0064101247111503406,1153.0320506235557,287.00010272530227)"><path fill="#000000" stroke="#000000" paint-order="fill stroke markers" d=" M 10 15 L 0 15 L 5 0 Z" stroke-miterlimit="10" stroke-dasharray=""/></g><g transform="matrix(1,0,0,1,1075.0641012471115,281.75020545060454)"/></g><g id="_30541BA1-318D-4C60-A161-70568875B44D" bpmn2nodeid="_30541BA1-318D-4C60-A161-70568875B44D"><g><path fill="none" stroke="#000000" paint-order="fill stroke markers" d=" M 1307 292 L 1372 292" stroke-miterlimit="10" stroke-dasharray=""/></g><g transform="matrix(1,0,0,1,1307,292)"/><g transform="matrix(6.123233995736766e-17,1,-1,6.123233995736766e-17,1387,287)"><path fill="#000000" stroke="#000000" paint-order="fill stroke markers" d=" M 10 15 L 0 15 L 5 0 Z" stroke-miterlimit="10" stroke-dasharray=""/></g><g transform="matrix(1,0,0,1,1307,282)"/></g><g transform="matrix(1,0,0,1,1153,513)"/><g transform="matrix(1,0,0,1,1387,264)"/><g transform="matrix(1,0,0,1,984,536)"/><g transform="matrix(1,0,0,1,422,165)"/><g transform="matrix(1,0,0,1,774,241)"/><g transform="matrix(1,0,0,1,661,264)"/><g transform="matrix(1,0,0,1,984,264)"/><g transform="matrix(1,0,0,1,1387,536)"/><g transform="matrix(1,0,0,1,1153,241)"/><g id="_3125663A-EA49-4611-B082-C9E7F92D99CC" bpmn2nodeid="_3125663A-EA49-4611-B082-C9E7F92D99CC" transform="matrix(1,0,0,1,259,264)"><g><path fill="none" stroke="none"/></g><g transform="matrix(0.125,0,0,0.125,0,0)"><g transform="matrix(1,0,0,1,0,0)"><path fill="#e8fae6" stroke="none" id="_3125663A-EA49-4611-B082-C9E7F92D99CC?shapeType=BACKGROUND" paint-order="stroke fill markers" d=" M 0 0 M 444 224 C 444 263.9 434.2 300.8 414.4 334.5 C 394.7 368.2 368 394.9 334.4 414.5 C 300.79999999999995 434.1 263.9 444 224 444 C 184.10000000000002 444 147.2 434.2 113.5 414.4 C 79.8 394.7 53.1 368 33.5 334.4 C 13.899999999999999 300.79999999999995 4 263.9 4 224 C 4 184.10000000000002 13.8 147.2 33.6 113.5 C 53.400000000000006 79.80000000000001 80.1 53.1 113.6 33.5 C 147.1 13.899999999999999 184.1 4 224 4 C 263.9 4 300.8 13.8 334.5 33.6 C 368.2 53.400000000000006 394.9 80.1 414.5 113.6 C 434.1 147.1 444 184.1 444 224 Z"/></g><g><g transform="matrix(1,0,0,1,0,0)"><g transform="matrix(1,0,0,1,0,0)"><path fill="rgb(74,162,65)" stroke="none" id="_3125663A-EA49-4611-B082-C9E7F92D99CC?shapeType=BORDER&amp;renderType=FILL" paint-order="stroke fill markers" d=" M 0 0 M 224 0 C 100.3 0 0 100.3 0 224 C 0 347.7 100.3 448 224 448 C 347.7 448 448 347.7 448 224 C 448 100.30000000000001 347.7 0 224 0 Z M 0 0 M 224 432 C 109.1 432 16 338.9 16 224 C 16 109.10000000000002 109.1 16 224 16 C 338.9 16 432 109.1 432 224 C 432 338.9 338.9 432 224 432 Z"/></g></g></g></g><g transform="matrix(1,0,0,1,28,61)"/></g><g id="_F19127A4-8C30-4082-9762-F02B9317C4F6" bpmn2nodeid="_F19127A4-8C30-4082-9762-F02B9317C4F6"><g><path fill="none" stroke="#000000" paint-order="fill stroke markers" d=" M 315 291.89629629629627 L 407.00010287960004 291.55555517452" stroke-miterlimit="10" stroke-dasharray=""/></g><g transform="matrix(1,0,0,1,315,291.89629629629627)"/><g transform="matrix(0.003703678301333992,0.9999931413599996,-0.9999931413599996,0.003703678301333992,421.9814816084933,286.5000342932)"><path fill="#000000" stroke="#000000" paint-order="fill stroke markers" d=" M 10 15 L 0 15 L 5 0 Z" stroke-miterlimit="10" stroke-dasharray=""/></g><g transform="matrix(1,0,0,1,315.0370367830133,281.6982167345481)"/></g><g transform="matrix(1,0,0,1,259,264)"/><g transform="matrix(1,0,0,1,548,264)"/><g id="_38377AAC-7700-430B-8A64-D82C4CCB4EF0" bpmn2nodeid="_38377AAC-7700-430B-8A64-D82C4CCB4EF0"><g><path fill="none" stroke="#000000" paint-order="fill stroke markers" d=" M 491 292 L 533 292" stroke-miterlimit="10" stroke-dasharray=""/></g><g transform="matrix(1,0,0,1,491,292)"/><g transform="matrix(6.123233995736766e-17,1,-1,6.123233995736766e-17,548,287)"><path fill="#000000" stroke="#000000" paint-order="fill stroke markers" d=" M 10 15 L 0 15 L 5 0 Z" stroke-miterlimit="10" stroke-dasharray=""/></g><g transform="matrix(1,0,0,1,491,282)"/></g><g transform="matrix(1,0,0,1,435,264)"/></g></g></svg>